<?xml version="1.0" standalone="no"?>
<!DOCTYPE svg PUBLIC "-//W3C//DTD SVG 1.1//EN" "http://www.w3.org/Graphics/SVG/1.1/DTD/svg11.dtd" >
<svg xmlns="http://www.w3.org/2000/svg">
<metadata>
This is a custom SVG webfont generated by Font Squirrel.
Copyright   : Copyright  Arkandis Digital Foundry under the GNU General Public License V2 and later with font exception
Designer    : HARENDAL Hirwen
Foundry     : Arkandis Digital Foundry
Foundry URL : httparkandistuxfamilyorg
</metadata>
<defs>
<font id="BaskervaldADFStdBold" horiz-adv-x="1665" >
<font-face units-per-em="2048" ascent="1495" descent="-553" />
<missing-glyph horiz-adv-x="614" />
<glyph unicode=" "  horiz-adv-x="614" />
<glyph unicode="&#x09;" horiz-adv-x="614" />
<glyph unicode="&#xa0;" horiz-adv-x="614" />
<glyph unicode="!" horiz-adv-x="483" d="M84 1106q0 37 5 79t19.5 95t48 87t81 34t81 -32t49 -83t21.5 -95t6 -85q0 -94 -41 -315.5t-45 -344.5q-61 4 -69.5 4.5t-69.5 -4.5q-4 117 -45 338.5t-41 321.5zM98 104.5q0 57.5 41 98.5t100.5 41t100.5 -41t41 -98.5t-41 -96.5t-100.5 -39t-100.5 39t-41 96.5z" />
<glyph unicode="&#x22;" horiz-adv-x="763" d="M68 1366h278q4 -41 4 -66q0 -227 -145 -436l-60 10q4 45 5 72q0 174 -82 420zM432 1366h279q4 -41 4 -66q0 -227 -146 -436l-59 10q4 45 4 72q0 174 -82 420z" />
<glyph unicode="#" horiz-adv-x="1261" d="M4 467l35 84h262q14 45 52 143.5t53 147.5h-273l33 84h268l150 442h166l-152 -442h252l151 442h166l-151 -442h241l-30 -84h-238q-12 -49 -49 -148.5t-49 -142.5h239l-32 -84h-250l-166 -469h-168l166 469h-254l-164 -469h-166l166 469h-258zM471 551h252l102 291h-256 q-12 -49 -49 -148.5t-49 -142.5z" />
<glyph unicode="$" horiz-adv-x="1048" d="M29 297q0 41 38.5 71.5t96.5 30.5q53 -2 84 -42t44 -88t51 -95t101 -63v495q-23 12 -86 43t-89.5 45.5t-74 48t-69 64.5t-38.5 79t-17 105q0 172 99 272.5t275 114.5v203h164v-203q133 -23 244 -96.5t111 -185.5q0 -92 -121 -111q-59 4 -86 45t-30 88t-30.5 93t-87.5 59 v-469l6 -2q195 -94 258 -146q133 -106 134 -266q0 -152 -119 -268.5t-279 -122.5v-217h-164v219q-66 8 -160 50t-174.5 111.5t-80.5 137.5zM309 1047q0 -49 24.5 -90.5t47 -58.5t63.5 -46v422q-41 -4 -66.5 -17.5t-47 -65.5t-21.5 -144zM608 111q61 14 106.5 77.5 t45.5 145.5q0 25 -4 46t-15.5 40.5t-18.5 32t-26.5 30t-26.5 23.5t-32 23.5t-29 19.5v-438z" />
<glyph unicode="%" horiz-adv-x="1249" d="M45 1006q0 82 25.5 158.5t93 137t168.5 60.5q141 0 216 -113.5t75 -242.5t-75 -243t-216 -114q-143 0 -215 112t-72 245zM150 0l782 1366h166l-787 -1366h-161zM260 987q0 -262 72 -262q74 0 74 272v11v10q0 272 -74 272q-72 0 -72 -270v-33zM625 346q0 131 72.5 243.5 t213.5 112.5q143 0 217 -111.5t74 -244.5q0 -82 -25.5 -158.5t-95 -137t-170.5 -60.5q-141 0 -213.5 112.5t-72.5 243.5zM844 324q0 -258 67 -258q74 0 74 272v10v10q0 272 -74 273q-68 0 -67 -258v-25v-24z" />
<glyph unicode="&#x26;" horiz-adv-x="1460" d="M39 336q0 256 303 424q-39 61 -58.5 93t-39 87t-19.5 107q0 109 107.5 177t236.5 68q113 0 211.5 -59t98.5 -158q0 -55 -19.5 -101t-59.5 -86t-72 -62.5t-85 -57.5q182 -295 231 -369q68 127 68 250q0 84 -139 84v90h512v-88q-94 -20 -149.5 -90t-103.5 -178.5 t-87 -157.5q37 -51 62.5 -82.5t70.5 -64.5t88 -33q90 0 160 96l106 -75q-53 -78 -139 -125.5t-174 -47.5q-190 0 -340 173q-86 -86 -168 -129.5t-192 -43.5q-160 0 -281 109t-129 250zM315 428q0 -104 64.5 -191t152.5 -96q104 0 181 84q-70 100 -283 447 q-115 -115 -115 -244zM475 1067q0 -37 12.5 -71.5t37 -80t32.5 -63.5q106 94 107 201q0 53 -28 91t-69 38q-37 0 -64.5 -33t-27.5 -82z" />
<glyph unicode="'" horiz-adv-x="583" d="M76 1366h264q4 -41 4 -63q0 -117 -46 -257.5t-114 -234.5l-53 14q6 47 6 111q0 231 -61 430z" />
<glyph unicode="(" horiz-adv-x="579" d="M59 442q0 252 75 504t220 461h226q-287 -446 -287 -964.5t287 -964.5h-226q-145 209 -220 460.5t-75 503.5z" />
<glyph unicode=")" horiz-adv-x="585" d="M0 -522q287 432 287 964.5t-287 964.5h227q145 -209 220 -461t75 -504t-74.5 -503.5t-220.5 -460.5h-227z" />
<glyph unicode="*" horiz-adv-x="886" d="M33 1141q0 35 29.5 58.5t80.5 23.5q53 0 125 -51.5t92 -59.5q-4 27 -32.5 93.5t-28.5 105.5q0 45 38 71.5t97 26.5q63 0 102 -27.5t39 -70.5q0 -37 -27.5 -101.5t-29.5 -95.5q23 12 59.5 42t69.5 48.5t70 18.5q45 0 82 -31t37 -74q0 -39 -37 -74q-10 -16 -51 -19 t-97.5 -4t-87.5 -11q18 -18 69.5 -52t82 -65t33.5 -70q0 -35 -48.5 -66.5t-101.5 -31.5q-47 0 -74.5 34t-50 98.5t-37.5 88.5q-10 -20 -30.5 -93t-51 -106.5t-92.5 -33.5q-51 0 -93 34.5t-42 67.5q0 35 31.5 69t84 71.5t68.5 54.5q-20 6 -89.5 9t-106.5 25q-82 34 -82 97z " />
<glyph unicode="+" horiz-adv-x="991" d="M25 639v135h395v391h147v-391h400v-135h-400v-391h-147v391h-395z" />
<glyph unicode="," horiz-adv-x="471" d="M94 -285q80 37 124 91.5t44 101.5q0 10 -4 26q0 39 -39 54q-61 0 -92 35.5t-31 91.5q0 115 125 114q72 -2 112 -66.5t40 -152.5q0 -131 -68.5 -229t-210.5 -135v69z" />
<glyph unicode="-" horiz-adv-x="745" d="M117 389v143h512v-143h-512z" />
<glyph unicode="." horiz-adv-x="485" d="M115 98.5q0 51.5 36.5 88t90 36.5t90.5 -36.5t37 -88t-37 -88.5t-90.5 -37t-90 37t-36.5 88.5z" />
<glyph unicode="/" horiz-adv-x="718" d="M-158 -522l711 1945h192l-714 -1945h-189z" />
<glyph unicode="0" horiz-adv-x="1173" d="M100 680q0 109 26 221.5t79 222t152.5 179t228.5 69.5q106 0 191 -47t138.5 -119.5t89 -168t50 -184.5t14.5 -173q0 -109 -24.5 -222.5t-77 -226t-151.5 -183.5t-230 -71q-125 0 -222.5 67t-152.5 173.5t-83 224t-28 238.5zM391 684q0 -49 2 -94t7.5 -125t18.5 -142.5 t32.5 -124t54.5 -96t80 -34.5q66 0 108.5 71.5t59 190.5t21.5 194.5t5 159.5q0 82 -5 158t-21.5 191.5t-59.5 186t-108.5 70.5t-108.5 -70.5t-59.5 -186t-21.5 -191.5t-5 -158z" />
<glyph unicode="1" horiz-adv-x="724" d="M59 0v94q102 0 140.5 28t38.5 120v888h-156v95q92 23 227 83t180 60q2 0 8.5 -1t10.5 -1v-1124q0 -86 39 -117t137 -31v-94h-625z" />
<glyph unicode="2" horiz-adv-x="1114" d="M59 0l45 143q121 98 211.5 185.5t188.5 206t151.5 251t53.5 263.5q0 98 -56.5 172.5t-140.5 74.5q-94 0 -150.5 -66.5t-56.5 -150.5q0 -61 35 -112.5t100 -73.5q-43 -84 -155 -84q-94 0 -142.5 69.5t-48.5 149.5q0 158 125 255t303 97q197 0 332 -111.5t135 -283.5 q0 -119 -52 -235.5t-148.5 -222t-183.5 -181.5t-204 -162h344q90 0 152 154h135l-92 -338h-881z" />
<glyph unicode="3" horiz-adv-x="1077" d="M59 248q0 74 71 121t185 47q-25 -119 -24 -133q0 -86 58.5 -145.5t131.5 -59.5q104 0 156.5 84t52.5 207t-42 206.5t-138 83.5q-55 0 -120.5 -30.5t-76.5 -30.5q-33 0 -39 94q29 72 189 72q20 0 82 -6q57 31 87 105.5t30 156.5q0 113 -45.5 198t-135.5 85 q-119 0 -119 -97q0 -84 72 -190q-49 -25 -115 -25q-78 0 -133 38t-55 101q0 115 122 182.5t255 67.5q164 0 295 -98t131 -246q0 -104 -50 -191t-139 -124q104 -41 170 -136.5t66 -205.5q0 -186 -151.5 -294t-362.5 -108q-154 0 -281 70t-127 201z" />
<glyph unicode="4" horiz-adv-x="1087" d="M16 322l650 1001q33 49 67 49q33 0 53 -55v-885q59 0 86 16.5t56 83.5h121l-78 -210h-185v-119q0 -66 32 -88.5t110 -22.5v-92h-551v92q84 0 117.5 22.5t33.5 88.5v119h-512zM260 432h268v436z" />
<glyph unicode="5" horiz-adv-x="1095" d="M47 231q0 49 37 89t104 42q53 -4 76 -36.5t26 -75.5t7 -85t34.5 -70.5t94.5 -28.5q86 0 147.5 69.5t87 159.5t25.5 182q0 287 -168 287q-35 0 -79 -35t-44 -78q-18 -27 -60 -49t-77 -22q-49 0 -49 59l125 690q184 -16 291 -16h63q164 0 205 51l166 2q-125 -127 -211 -182 q-92 -55 -170 -56h-4q-45 -2 -79 -5t-38 -3h-8q-8 0 -19.5 1t-32 3t-44.5 4l-52 -311q72 45 162 45q156 0 289 -116.5t133 -266.5q0 -215 -166 -364.5t-399 -149.5q-129 0 -251 75.5t-122 190.5z" />
<glyph unicode="6" horiz-adv-x="1126" d="M98 555q0 141 38 280.5t110.5 264.5t202 202.5t290.5 77.5q57 0 113.5 -12t104 -46t47.5 -85q0 -37 -35 -64.5t-88 -27.5q-45 0 -66.5 24.5t-27 53t-32 53t-79.5 24.5q-90 0 -156.5 -86t-96.5 -188t-40 -209q86 72 219 72q193 0 312.5 -133t119.5 -312 q0 -190 -124 -328.5t-330 -138.5q-125 0 -221.5 51.5t-151.5 136.5t-82 183t-27 207zM387 477q0 -68 7 -128t24.5 -128.5t57.5 -109.5t99 -41q182 0 183 374q0 61 -7.5 117.5t-25.5 116t-57 95.5t-97 36q-66 0 -109.5 -57.5t-59 -128t-15.5 -146.5z" />
<glyph unicode="7" horiz-adv-x="983" d="M51 1004l78 415h123q0 -29 8 -45q8 -8 21 -8h669l-491 -1260q-18 -41 -34.5 -63.5t-52.5 -44t-83 -21.5q-59 0 -91 36t-32 87q0 41 22 80l539 1002h-350q-154 0 -191 -178h-135z" />
<glyph unicode="8" horiz-adv-x="1204" d="M100 373q0 102 57.5 189t151.5 140q-84 45 -131 128t-47 186q0 158 143.5 261t321.5 103q180 0 325.5 -97t145.5 -261q0 -94 -48 -173t-130 -122q100 -49 158.5 -142t58.5 -206q0 -182 -157.5 -292t-360.5 -110q-199 0 -343.5 112t-144.5 284zM377 387q0 -129 55 -220 t162 -91q104 0 163.5 87t59.5 210q0 41 -8 73.5t-29.5 57t-39 42t-55.5 34t-55.5 23.5t-63.5 21.5t-60 18.5q-129 -86 -129 -256zM401 1057q0 -31 4.5 -55.5t17.5 -47t22.5 -38t34 -32t35.5 -25.5t44 -23.5t43 -18.5t49 -18.5t47 -16.5q100 66 101 244q0 111 -54.5 189.5 t-146.5 78.5q-86 0 -141.5 -68.5t-55.5 -168.5z" />
<glyph unicode="9" horiz-adv-x="1153" d="M96 195q0 47 35 79.5t98 32.5q51 -2 78 -39t33 -80t39 -78.5t96 -35.5q68 2 119 34.5t81 80t49 113t26.5 120.5t9.5 115q-82 -70 -189 -70q-197 0 -333 125t-136 299q0 190 133.5 339.5t339.5 149.5q100 0 183.5 -37.5t136.5 -98t90 -141.5t53.5 -163t16.5 -166 q0 -133 -38 -268t-112 -256t-196.5 -197t-276.5 -76q-123 0 -229.5 58t-106.5 160zM391 924q0 -377 180 -377q55 0 94.5 33.5t58.5 89t27.5 110t8.5 113.5q0 63 -7.5 123.5t-24.5 130.5t-56 113t-96.5 43t-96.5 -38t-56 -100.5t-24.5 -120t-7.5 -120.5z" />
<glyph unicode=":" horiz-adv-x="493" d="M115 98.5q0 51.5 36.5 88t90 36.5t90.5 -36.5t37 -88t-37 -88.5t-90.5 -37t-90 37t-36.5 88.5zM115 743.5q0 51.5 36.5 88t90 36.5t90.5 -36.5t37 -88t-37 -88.5t-90.5 -37t-90 37t-36.5 88.5z" />
<glyph unicode=";" horiz-adv-x="471" d="M94 -285q80 37 124 91.5t44 101.5q0 10 -4 26q0 39 -39 54q-61 0 -92 35.5t-31 91.5q0 115 125 114q72 -2 112 -66.5t40 -152.5q0 -131 -68.5 -229t-210.5 -135v69zM115 743.5q0 51.5 36.5 88t90 36.5t90.5 -36.5t37 -88t-37 -88.5t-90.5 -37t-90 37t-36.5 88.5z" />
<glyph unicode="&#x3c;" horiz-adv-x="1005" d="M6 694v37l934 535v-129l-580 -363l580 -375v-264z" />
<glyph unicode="=" horiz-adv-x="1263" d="M117 459v127h1030v-127h-1030zM117 723v127h1030v-127h-1030z" />
<glyph unicode="&#x3e;" horiz-adv-x="1005" d="M63 135v129l582 363l-582 374v265l938 -561v-35z" />
<glyph unicode="?" horiz-adv-x="737" d="M16 1239q0 78 98.5 120t198.5 42q160 0 272.5 -109.5t112.5 -257.5q0 -117 -80.5 -217t-205.5 -100q-43 0 -86 18v-350q-14 0 -39 3t-35 3q-33 0 -76 -8v512h107q35 -61 73 -61q35 0 57.5 59t22.5 158q0 94 -29.5 170.5t-97.5 76.5q-43 0 -69.5 -21.5t-35.5 -48 t-27.5 -48t-45.5 -21.5q-49 0 -82 22.5t-33 57.5zM113 104.5q0 57.5 41 98.5t100 41t100 -41t41 -98.5t-41 -96.5t-100 -39t-100 39t-41 96.5z" />
<glyph unicode="@" horiz-adv-x="1531" d="M63 649q0 330 227.5 539t577.5 209q260 0 429 -149.5t169 -391.5q0 -133 -45 -261t-147.5 -223.5t-241.5 -95.5q-68 0 -106.5 42t-51.5 108q-125 -156 -253 -156q-117 0 -183.5 83t-66.5 184q0 109 55 232.5t163.5 217.5t235.5 94q94 0 158 -77l2 55q98 2 211 16 l-145 -624q0 -70 12 -70q59 0 110.5 56.5t82 135t48 152.5t17.5 121q0 193 -134 318.5t-319 125.5q-274 0 -460.5 -188.5t-186.5 -466.5q0 -225 158 -390t371 -165q119 0 220 49t224 143l154 -30q-303 -270 -631 -271q-287 0 -470.5 201t-183.5 477zM598 500q0 -49 13.5 -88 t37.5 -41q35 2 65.5 22.5t49 45t37 67.5t28 72.5t22.5 80t19 68.5l45 150q-18 111 -61 110q-76 0 -138.5 -93t-90 -201.5t-27.5 -192.5z" />
<glyph unicode="A" d="M31 0v102q92 2 139 26t78 95l512 1174h147l537 -1174q29 -63 70.5 -91t115.5 -30v-102h-663v100q70 0 108.5 21.5t38.5 58.5q0 16 -4 27l-94 246h-479l-97 -236q-16 -37 -16 -53q0 -61 139 -62h37v-102h-569zM592 578h360l-180 421z" />
<glyph unicode="B" horiz-adv-x="1282" d="M35 0v102q63 2 87.5 5.5t55.5 15.5t40 39.5t9 77.5v886q0 49 -9 77t-40 40t-55.5 15.5t-87.5 5.5v102h713q172 0 289.5 -81t117.5 -230q0 -236 -266 -312q150 -31 246 -124t96 -238q0 -172 -131 -276.5t-328 -104.5h-737zM537 240q0 -78 37.5 -103.5t111.5 -25.5 q201 0 201 297q0 78 -21.5 131t-49.5 79.5t-82 41t-91 16.5t-106 2v-438zM537 782q72 0 112.5 6.5t86.5 28t67.5 72.5t21.5 133q0 119 -40 179.5t-134 60.5h-114v-480z" />
<glyph unicode="C" horiz-adv-x="1486" d="M57 666q0 307 208 520t534 213q215 0 405 -129q16 43 31 94h123l35 -518h-152q-49 211 -149.5 327.5t-284.5 116.5q-139 0 -235.5 -95t-134.5 -223t-38 -274q0 -158 44 -287.5t148.5 -219t258.5 -89.5q150 0 276.5 91.5t192.5 242.5l141 -74q-90 -190 -271 -294.5 t-394 -104.5q-326 0 -532 199t-206 504z" />
<glyph unicode="D" horiz-adv-x="1572" d="M35 0v102q51 2 71.5 3t52 8.5t43 22t20.5 40t9 64.5v886q0 39 -9 65t-20.5 40t-43 21.5t-52 8.5t-71.5 3v102h592q147 0 264 -14.5t237.5 -59.5t200.5 -118.5t131 -201.5t51 -300q0 -303 -202.5 -487.5t-534.5 -184.5h-739zM541 307q0 -129 36.5 -163.5t155.5 -34.5 q115 0 201 46t133 126.5t69.5 179t22.5 215.5q0 588 -522 588q-27 0 -96 -4v-953z" />
<glyph unicode="E" horiz-adv-x="1318" d="M35 0v102q51 2 71.5 3t52 8.5t43 22t20.5 40t9 64.5v886q0 39 -9 65t-20.5 40t-43 21.5t-52 8.5t-71.5 3v102h1093l46 -365h-152q-27 127 -80 193t-154 66h-247v-482h77q74 0 110 44t42 141h152v-490h-152q-8 53 -12 71.5t-14.5 51.5t-23.5 43t-39 19.5t-63 9.5h-77v-406 q0 -88 41 -122t125 -34q70 0 109.5 3.5t89.5 17.5t87 47t66 86q68 123 71 189h148l-37 -449h-1206z" />
<glyph unicode="F" horiz-adv-x="1191" d="M35 0v102q63 2 87.5 5.5t55.5 15.5t40 39.5t9 77.5v886q0 49 -9 77t-40 40t-55.5 15.5t-87.5 5.5v102h1083l47 -362h-147q-35 129 -85 193.5t-151 64.5h-252v-486h109q115 0 115 185h157v-492h-157q0 100 -29 149.5t-98 49.5h-97v-428q0 -39 10.5 -66t21.5 -40t45 -20.5 t53.5 -8.5t74.5 -3v-102h-700z" />
<glyph unicode="G" horiz-adv-x="1585" d="M57 641q0 313 211 535.5t545 222.5q227 0 401 -121q18 49 29 86h137v-514h-139q-29 188 -137 311q-119 135 -285 135q-96 0 -171 -38.5t-120 -100t-73.5 -148.5t-38.5 -171t-10 -179q0 -139 36.5 -265t130 -219t228.5 -93q80 0 181 42t101 103v183q0 63 -33.5 83.5 t-101.5 20.5h-65v102h692l-16 -100q-168 0 -168 -106v-316q-139 -2 -302 -65.5t-309 -63.5q-311 0 -517 193.5t-206 482.5z" />
<glyph unicode="H" horiz-adv-x="1671" d="M35 0v102q51 2 71.5 3t52 8.5t43 22t20.5 40t9 64.5v886q0 39 -9 65t-20.5 40t-43 21.5t-52 8.5t-71.5 3v102h710v-102q-61 -2 -81.5 -3t-54.5 -8.5t-43 -21.5t-17 -39t-8 -66v-342h577v342q0 47 -10 75t-40 41t-58.5 16.5t-87.5 5.5v102h714v-102q-47 -2 -61 -2 t-45 -3.5t-38 -8.5t-23.5 -14t-19.5 -25l-7 -35q-4 -20 -4 -50v-886q0 -49 10 -78t36.5 -41t53.5 -15.5t76 -3.5h22v-102h-714v102q61 2 88.5 5.5t57.5 16.5t40 41t10 75v417h-577v-417q0 -39 10 -66t21.5 -40t45 -20.5t53 -8.5t74.5 -3v-102h-710z" />
<glyph unicode="I" horiz-adv-x="763" d="M35 0v102q49 2 69.5 3t51 8.5t41 22t19.5 40t9 64.5v886q0 39 -9 65t-19.5 40t-41 21.5t-51 8.5t-69.5 3v102h694v-102q-129 -4 -156 -21q-37 -23 -36 -117v-886q0 -39 10 -66t19 -40t42 -20.5t50.5 -9.5t70.5 -4v-100h-694z" />
<glyph unicode="J" horiz-adv-x="706" d="M-416 -322q0 49 48.5 87t115.5 38q63 0 106.5 -35.5t43.5 -80.5q0 -12 -3.5 -34t-3.5 -30q0 -39 60 -39q233 0 233 330v1210q0 39 -10 64.5t-21.5 40t-43 21.5t-51 9.5t-70.5 6.5v100h702v-102q-125 -4 -158.5 -24.5t-33.5 -115.5v-1075q0 -256 -129 -413.5t-408 -157.5 q-80 0 -158.5 15t-148.5 63t-70 122z" />
<glyph unicode="K" horiz-adv-x="1581" d="M35 0v102q51 2 71.5 3t52 8.5t43 22t20.5 40t9 64.5v886q0 39 -9 65t-20.5 40t-43 21.5t-52 8.5t-71.5 3v102h710v-102q-205 -2 -204 -129v-9v-387l432 443q16 23 16 37q0 45 -141 47v100h631v-100q-176 0 -289 -107l-342 -319l502 -650q74 -88 229 -88v-102h-696v102h55 q82 0 82 41q0 18 -16 41l-373 498l-90 -102v-340q0 -39 10 -64.5t21.5 -40t44 -22t54 -8.5t74.5 -3v-102h-710z" />
<glyph unicode="L" horiz-adv-x="1306" d="M35 0v102q51 2 71.5 3t52 8.5t43 22t20.5 40t9 64.5v886q0 39 -9 65t-20.5 40t-43 21.5t-52 8.5t-71.5 3v102h706v-102q-131 -4 -155 -21q-37 -23 -37 -117v-888q6 -78 43 -105t115 -27q70 0 109.5 3.5t89.5 17.5t87 47t66 86q68 123 71 189h148l-37 -449h-1206z" />
<glyph unicode="M" horiz-adv-x="1925" d="M37 0v102q106 2 151 46.5t45 140.5v809q0 106 -38.5 134t-157.5 32v102h510l411 -1004l422 1004h510v-102q-57 -2 -79.5 -3t-53.5 -8.5t-40 -21.5t-16 -39t-7 -66v-886q0 -90 37.5 -114t123.5 -24h35v-102h-714v100q127 6 162.5 38t35.5 138v670l-416 -946h-124 l-420 1028v-782q4 -72 51 -107t158 -37v-102h-586z" />
<glyph unicode="N" horiz-adv-x="1585" d="M35 0v102q106 2 148 47.5t42 147.5v831q0 39 -9 65t-19.5 40t-41 21.5t-50 9.5t-70.5 4v102h463l649 -950v670q0 53 -7 85.5t-26.5 49t-36 21.5t-50.5 11.5t-56 14.5v98h551v-102q-106 -2 -148.5 -43t-42.5 -135v-1102h-162l-768 1097v-735q0 -68 5.5 -103.5t24 -72.5 t61.5 -53.5t114 -20.5v-100h-571z" />
<glyph unicode="O" horiz-adv-x="1677" d="M57 682q0 315 220.5 516t558.5 201q340 0 561 -201t221 -516q0 -311 -222 -514t-560 -203q-334 0 -556.5 204t-222.5 513zM401 684q0 -121 22.5 -224.5t70 -192.5t135.5 -141t207 -52q121 0 207.5 52t135 142t70 193.5t21.5 222.5t-21.5 222.5t-70 193.5t-135.5 142 t-207 52q-119 0 -206 -52t-135.5 -142t-71 -193.5t-22.5 -222.5z" />
<glyph unicode="P" horiz-adv-x="1239" d="M35 0v102q63 2 87.5 5.5t55.5 15.5t40 39.5t9 77.5v886q0 49 -9 77t-40 40t-55.5 15.5t-87.5 5.5v102h526q76 0 128 -2t125 -9t122 -21.5t104.5 -42t87 -66.5t53 -98.5t21.5 -133.5q0 -98 -54 -180t-155 -131q-102 -51 -307 -51h-158v-391q0 -41 10.5 -67t21.5 -39 t46 -20.5t54.5 -8.5t76.5 -3v-102h-702zM528 731h115q111 0 169 73t58 197q0 145 -62.5 207t-195.5 62q-31 0 -84 -4v-535z" />
<glyph unicode="Q" horiz-adv-x="1679" d="M57 676q0 317 227.5 520t569.5 203q336 0 555 -202t219 -515q0 -231 -132 -414.5t-366 -265.5q-78 -18 -339 -129q158 -16 452.5 -112.5t431.5 -96.5q139 0 189 156q16 47 78 47q70 0 69 -57q0 -86 -79 -165t-185.5 -123t-198.5 -44q-104 0 -224 49t-209 108.5 t-205.5 108.5t-217.5 49q-68 0 -145.5 -62.5t-130.5 -62.5q-31 0 -57.5 23.5t-26.5 60.5q0 55 112 86q162 55 287 123q-299 23 -486.5 219.5t-187.5 495.5zM406 674q0 -121 21.5 -223.5t68.5 -192.5t135 -141t209 -51q438 0 438 636q0 117 -22.5 218.5t-70.5 187.5t-133 136 t-202 50q-123 0 -213 -51t-139 -142t-70.5 -196.5t-21.5 -230.5z" />
<glyph unicode="R" horiz-adv-x="1484" d="M35 0v102q51 2 71.5 3t52 8.5t43 22t20.5 40t9 64.5v886q0 39 -9 65t-20.5 40t-43 21.5t-52 8.5t-71.5 3v102h629q98 0 192 -20.5t179 -62.5t136.5 -117.5t51.5 -174.5q0 -266 -285 -327q72 -33 135.5 -105t107.5 -147.5t88 -147t98 -118t116 -46.5v-100h-396 q0 80 -87 232.5t-193.5 273.5t-159.5 121h-106v-387q0 -39 10 -66t21.5 -40t45 -20.5t53 -8.5t74.5 -3v-102h-710zM541 731h129q225 0 225 273q0 260 -254 260h-100v-533z" />
<glyph unicode="S" horiz-adv-x="1114" d="M76 0v457h149q18 -150 113.5 -259.5t222.5 -109.5q100 0 172 57.5t72 165.5q0 100 -73 172t-177 120t-209.5 98.5t-178.5 135.5t-73 203q0 160 125 259.5t305 99.5q170 0 293 -88q4 12 21 69h129v-399h-146q-4 119 -95 219t-191 100q-123 0 -175 -167q0 -76 52.5 -135.5 t130.5 -96.5t168 -84t167.5 -94t130 -131t52.5 -193q0 -184 -128 -309t-331 -125q-190 0 -354 135q-12 -37 -23 -100h-149z" />
<glyph unicode="T" horiz-adv-x="1476" d="M20 1004l48 362h1339l45 -362h-143q-41 131 -90.5 194.5t-151.5 63.5h-182v-1022q0 -39 10 -66t21.5 -40t45 -20.5t53 -8.5t75.5 -3v-102h-707v102q61 2 88 5.5t58.5 15.5t42 41t10.5 76v1022h-174q-102 0 -152.5 -63.5t-85.5 -194.5h-150z" />
<glyph unicode="U" horiz-adv-x="1505" d="M16 1264v100h711v-100q-12 0 -36.5 -1t-37 -1t-32 -3.5t-30.5 -8.5t-25.5 -15t-20.5 -24.5t-11.5 -37t-5.5 -51.5v-635q0 -82 5.5 -136t21.5 -111.5t47 -90t84 -54t129 -21.5q68 0 117 14t78.5 45t49 62.5t27 83t9.5 88t2 96.5v24v625q0 92 -44 120t-155 34v98h592v-98 q-129 -8 -158 -27q-43 -29 -43 -127v-641q0 -244 -104.5 -375t-370.5 -131q-168 0 -273.5 19.5t-184 73t-112.5 151.5t-34 254v659q0 51 -10.5 80t-41 41t-56.5 15.5t-87 5.5z" />
<glyph unicode="V" horiz-adv-x="1607" d="M0 1264v102h662v-100q-170 -14 -170 -82q0 -8 4 -25l364 -819l324 819q12 29 12 45q0 59 -164 60v102h567v-104h-16q-133 0 -201 -119l-512 -1166h-141l-545 1166q-51 121 -184 121z" />
<glyph unicode="W" horiz-adv-x="2076" d="M2 1264v102h643v-102q-160 -4 -164 -88l232 -787l295 977h133l317 -883l201 647q14 49 14 68q0 39 -38 52.5t-136 13.5v102h569v-102q-90 -2 -126.5 -20.5t-61.5 -88.5l-391 -1178h-133l-344 965l-283 -965h-145l-402 1172q-33 115 -180 115z" />
<glyph unicode="X" horiz-adv-x="1570" d="M6 0v102h12q186 0 271 105l375 467l-363 487q-39 59 -91 80t-144 23v102h673l-2 -102q-115 0 -114 -33q0 -18 18 -45l193 -314l217 314q14 23 14 39q0 23 -36 31t-120 8v102h598v-100q-109 -8 -170 -26.5t-104 -78.5l-293 -389l383 -565q63 -96 238 -107v-100h-693v102 q78 0 109 7.5t31 29.5q0 16 -17 45l-246 389l-276 -391q-18 -23 -18 -35q0 -41 159 -45v-102h-604z" />
<glyph unicode="Y" horiz-adv-x="1476" d="M-2 1264v102h664v-102q-125 0 -125 -37q0 -18 12 -39l250 -404l254 404q14 23 14 39q0 25 -37 31t-145 6v102h585v-102q-94 -4 -150 -29t-95 -88l-334 -541v-366q0 -47 12 -76t43 -41t58.5 -16.5t82.5 -4.5v-102h-706v102q55 2 77.5 3t55.5 8.5t45 22t21.5 40t9.5 64.5 v364l-379 561q-37 53 -85 75t-128 24z" />
<glyph unicode="Z" horiz-adv-x="1327" d="M16 0v57l850 1194h-374q-193 0 -256 -254h-154l47 369h1126l-4 -53l-839 -1198h436q123 0 183.5 67.5t101.5 210.5h153l-35 -393h-1235z" />
<glyph unicode="[" horiz-adv-x="524" d="M117 -522v1929h383v-107h-150v-1716h150v-106h-383z" />
<glyph unicode="\" horiz-adv-x="856" d="M-4 1407h188l693 -1929h-187z" />
<glyph unicode="]" horiz-adv-x="550" d="M20 -416h177v1716h-177v107h414v-1929h-414v106z" />
<glyph unicode="^" horiz-adv-x="1280" d="M6 582l617 852h63l586 -852h-180l-371 573l-389 -573h-326z" />
<glyph unicode="_" horiz-adv-x="999" d="M-18 -182h1030v-101h-1030v101z" />
<glyph unicode="`" horiz-adv-x="579" d="M35 1221q0 25 51 24q16 0 68.5 -9t85.5 -9q74 0 133 20l127 -250q-14 -33 -62 -32q-31 0 -61 12l-311 207q-31 17 -31 37z" />
<glyph unicode="a" horiz-adv-x="1038" d="M74 201q0 68 23.5 119t58 78.5t88 50t101.5 34t109.5 27.5t100.5 33v53q0 94 -18.5 141t-81.5 47q-59 0 -90 -30.5t-38.5 -67.5t-30 -67.5t-67.5 -30.5q-51 0 -96 23.5t-45 62.5q0 68 67.5 119t149.5 71.5t154 20.5q362 0 362 -273v-501q61 45 68 102h127 q-72 -236 -248 -236q-154 0 -186 119q-121 -117 -263 -116q-111 0 -178 62.5t-67 158.5zM338 254q0 -123 78 -123q68 0 139 72v237q-12 -6 -63.5 -24.5t-75 -31.5t-49 -48t-29.5 -82z" />
<glyph unicode="b" horiz-adv-x="1146" d="M-18 1262v100q217 27 393 61v-624q88 88 237 88q217 0 338 -128t121 -325q0 -195 -132 -326t-347 -131q-145 0 -285 91q-27 -33 -39 -68h-159v1124q0 136 -127 138zM375 231q80 -135 205 -135q104 0 152 97.5t48 224.5q0 340 -190 340q-162 0 -215 -127v-400z" />
<glyph unicode="c" horiz-adv-x="966" d="M74 399q0 199 128 336t347 137q63 0 138 -18t138.5 -61t63.5 -99q0 -41 -37 -67.5t-98 -26.5q-57 0 -88 20.5t-37 47t-28.5 56.5t-65.5 42q-59 -2 -99.5 -55.5t-53.5 -119t-13 -138.5q0 -84 19.5 -161t69.5 -136.5t123.5 -59.5t121 38t88.5 120l149 -29 q-78 -125 -162 -183t-198 -58q-242 0 -374 109t-132 306z" />
<glyph unicode="d" horiz-adv-x="1204" d="M76 434q0 178 125 318.5t297 140.5q141 0 268 -105v334q0 68 -29.5 103t-103.5 37v98q225 27 401 63v-1181q0 -68 30 -103t105 -37v-100q-68 0 -192.5 -14.5t-155.5 -16.5l-2 88q-127 -80 -260 -79q-217 0 -350 130.5t-133 323.5zM369 420q0 -127 49 -224.5t149 -97.5 q127 0 199 138v395q-53 127 -207 127q-190 0 -190 -338z" />
<glyph unicode="e" horiz-adv-x="993" d="M74 426q0 190 125 324.5t331 134.5q186 0 292 -127t106 -312h-572q10 -356 213 -356q131 0 244 154l131 -45q-154 -221 -405 -222q-209 0 -337 129.5t-128 319.5zM360 553h304v16q0 203 -142 203q-76 0 -116 -63.5t-46 -155.5z" />
<glyph unicode="f" horiz-adv-x="675" d="M55 768v98h133q0 72 3.5 122t15.5 116.5t37.5 112t65.5 87.5t105.5 62t153.5 20q90 0 168 -44t78 -117q0 -39 -38 -70t-93 -31q-41 0 -60.5 25t-20.5 53.5t-14.5 53t-45.5 24.5q-86 0 -86 -190v-224h180v-98h-180v-526q0 -86 35.5 -113t138.5 -31v-98h-572v102 q76 2 102.5 36t26.5 104v526h-133z" />
<glyph unicode="g" horiz-adv-x="1105" d="M12 -256q0 92 57.5 129t168.5 37q63 0 106 -25q-47 -25 -69.5 -54.5t-22.5 -86.5q0 -49 21.5 -81t62.5 -44t75.5 -16t84.5 -4q119 0 190.5 42t71.5 117q0 70 -73 106t-176 47t-206.5 23.5t-176.5 55.5t-73 123q0 41 52.5 89t160.5 91q-170 84 -170 254q0 150 107.5 238.5 t277.5 88.5q164 0 252 -94q84 88 185 94q57 0 106 -25.5t49 -68.5v-16q0 -98 -123 -98q-23 0 -55.5 37.5t-56.5 37.5q-10 0 -21 -22q43 -80 43 -164q0 -131 -97 -215t-245 -92q-4 0 -25.5 -1t-40 -2t-44 -4t-44 -8.5t-35 -15.5t-20.5 -24q0 -31 51.5 -49.5t127 -23.5 t164.5 -22.5t166 -44t129 -90t52 -156.5q0 -330 -512 -329q-78 0 -154.5 13t-151.5 42t-122 84t-47 127zM373 541q0 -209 102 -209q119 0 119 223q0 227 -110.5 227.5t-110.5 -241.5z" />
<glyph unicode="h" horiz-adv-x="1171" d="M37 0v100q74 2 101.5 37t27.5 103v884q0 135 -129 138v100q211 27 393 59v-622q129 94 295 94q125 0 205 -71.5t80 -227.5v-354q0 -70 26.5 -104t100.5 -36v-100h-535v100q74 2 100.5 36t26.5 104v350q0 158 -117 158q-94 0 -182 -80v-428q0 -70 31 -104t112 -36v-100 h-536z" />
<glyph unicode="i" horiz-adv-x="614" d="M59 0v100q76 2 100.5 35t24.5 105v340q0 70 -26.5 104.5t-98.5 36.5v98q90 10 383 66v-645q0 -72 28 -105t108 -35v-100h-519zM152 1185.5q0 67.5 48 115t117.5 47.5t117.5 -47.5t48 -115t-48 -114.5t-117.5 -47t-117.5 47t-48 114.5z" />
<glyph unicode="j" horiz-adv-x="555" d="M-174 -389q0 37 36 68.5t85 31.5q35 0 78 -56t81 -56q63 0 64 172v39v772q0 137 -125 143v96q137 16 379 64v-1026q0 -164 -95.5 -272.5t-267.5 -108.5q-74 0 -154.5 37t-80.5 96zM129 1185.5q0 67.5 48 115t118 47.5t118 -47.5t48 -115t-48 -114.5t-118 -47t-118 47 t-48 114.5z" />
<glyph unicode="k" horiz-adv-x="1116" d="M37 0v100q74 2 101.5 37t27.5 103v884q0 135 -129 138v100q227 27 391 59v-882l190 180q12 12 13 20q0 25 -80 25v100h448v-98q-152 -20 -217 -80l-166 -145l293 -342q66 -76 185 -101v-98h-486v100h17q49 0 49 15q0 4 -4 12l-234 293l-8 -23v-157q0 -70 29.5 -104 t115.5 -36v-100h-536z" />
<glyph unicode="l" horiz-adv-x="591" d="M37 0v100q72 2 98.5 37t26.5 103v884q0 135 -125 138v100q207 25 387 59v-1181q0 -70 26.5 -104t106.5 -36v-100h-520z" />
<glyph unicode="m" horiz-adv-x="1765" d="M55 0v100q74 2 100.5 35t26.5 103v335q0 68 -27.5 103t-99.5 37v96q201 23 351 59q37 -61 43 -102q129 109 278 108q78 0 145.5 -30.5t98.5 -87.5q156 119 303 118q178 0 250.5 -74.5t72.5 -224.5v-337q0 -70 28 -103t106 -35v-100h-545v100q76 2 103.5 35t27.5 103v311 q0 92 -23.5 139t-101.5 47q-80 0 -158 -84v-413q0 -70 25.5 -103t101.5 -35v-100h-538v100q76 2 100.5 35t24.5 103v327q0 170 -119 170q-76 0 -166 -86v-411q0 -70 27.5 -103t103.5 -35v-100h-539z" />
<glyph unicode="n" horiz-adv-x="1185" d="M55 0v100q74 2 100.5 35t26.5 103v335q0 68 -28.5 103t-98.5 37v96q195 23 346 59q37 -61 43 -102q121 109 275 108q307 0 307 -284v-352q0 -70 24.5 -103t100.5 -35v-100h-533v100q74 2 99.5 35t25.5 103v327q0 170 -125 170q-82 0 -159 -86v-411q0 -70 27.5 -103 t103.5 -35v-100h-535z" />
<glyph unicode="o" horiz-adv-x="1128" d="M74 420q0 209 128 337t351 128t346 -124t123 -333q0 -201 -131 -326t-346 -125q-217 0 -344 118t-127 325zM358 412q0 -141 42 -239.5t145 -98.5q195 0 194 350q0 72 -6 126t-24.5 113.5t-59.5 91t-102 31.5q-189 1 -189 -374z" />
<glyph unicode="p" horiz-adv-x="1171" d="M29 -420q74 2 101.5 36t27.5 103v848q0 68 -30 104t-99 38v98q225 29 348 61q33 -51 39 -94q98 98 241 98q199 0 319 -131t120 -315q0 -188 -122 -325.5t-327 -137.5q-127 0 -223 72v-316q0 -86 37 -111.5t141 -31.5v-98h-573v102zM424 174q82 -86 174 -92q76 0 124 58.5 t64.5 132t16.5 161.5q0 78 -14.5 145.5t-56.5 121t-107 53.5q-115 0 -201 -150v-430z" />
<glyph unicode="q" horiz-adv-x="1105" d="M74 397q0 190 129 329.5t336 139.5q141 0 237 -84q96 27 221 90v-1155q0 -72 27 -104.5t106 -34.5v-100h-575v96q104 6 142 32.5t38 110.5v324q-104 -80 -221 -80q-201 0 -320.5 127t-119.5 309zM365 391q0 -123 47 -215t143 -92q74 0 180 80v477q-82 100 -178 100 q-70 0 -116 -60t-61 -134t-15 -156z" />
<glyph unicode="r" horiz-adv-x="817" d="M41 0v98q74 2 100.5 35t26.5 103v333q0 68 -28.5 103t-98.5 37v96q197 23 342 59q39 -61 43 -119q92 111 201 111q70 0 120 -34t50 -87q0 -35 -34 -66.5t-89 -31.5q-29 0 -65 37t-66.5 37t-59 -24.5t-43.5 -59.5v-391q0 -80 24.5 -102.5t115.5 -37.5v-96h-539z" />
<glyph unicode="s" horiz-adv-x="829" d="M96 0v317h135q12 -102 64 -161q53 -66 135 -66q35 0 59.5 28.5t24.5 74.5q0 53 -43 93t-104.5 68.5t-123 61.5t-104.5 86t-43 125q0 111 74 179t203 68q98 0 188 -79l14 57h125v-309h-131q-6 70 -65 143q-61 76 -111 76q-51 0 -65 -92q2 -57 68.5 -101.5t145.5 -73 t144.5 -93t65.5 -156.5q0 -119 -82 -194t-221 -75q-104 0 -207 76l-17 -53h-129z" />
<glyph unicode="t" horiz-adv-x="716" d="M47 764v80q100 16 148.5 107t48.5 208h159v-293h218v-102h-218v-492q0 -139 52 -139q12 0 22 2t20.5 8.5t17.5 10.5t18.5 15t17.5 16t19.5 19.5t17.5 18.5l106 -51q-125 -180 -301 -180q-258 0 -258 280v492h-88z" />
<glyph unicode="u" horiz-adv-x="1126" d="M14 750v100h387v-559q0 -172 125 -172q70 0 160 86v405q0 70 -27.5 104t-99.5 36v100h389v-610q0 -68 29 -103t102 -37v-100q-174 0 -346 -12q-20 39 -33 100q-123 -111 -270 -111q-293 0 -293 287v346q0 70 -25.5 104t-97.5 36z" />
<glyph unicode="v" horiz-adv-x="1093" d="M18 752v98h480v-96q-92 -8 -92 -56q0 -6 4 -18l184 -401l188 413v6q0 23 -36.5 38.5t-59.5 15.5v98h387v-98q-92 0 -115 -41l-356 -711h-123l-350 709q-23 43 -111 43z" />
<glyph unicode="w" horiz-adv-x="1515" d="M14 756v94h465v-98q-18 0 -52 -14.5t-34 -41.5q0 -4 4 -16l144 -361l184 531h137l195 -539l143 369q2 4 2 12q0 27 -36 43.5t-56 16.5v98h385v-96q-53 -4 -81 -18.5t-42 -47.5l-305 -688h-137l-185 553l-200 -553h-123l-295 688q-4 10 -9 17.5t-9.5 12.5t-12.5 10t-11 7 t-15 6l-16 5q-3 1 -19.5 4.5t-20.5 5.5z" />
<glyph unicode="x" horiz-adv-x="1167" d="M31 0v100q121 0 172 52l258 258l-250 286q-31 33 -62.5 44.5t-91.5 11.5v98h480v-98q-8 0 -21.5 1t-17.5 1q-16 0 -17 -6q0 -4 8 -11l127 -182l146 182q6 8 6 13q0 6 -12 6q-4 0 -32 -2t-48 -2v98h428v-98q-119 0 -162 -43l-240 -242l267 -315q27 -33 61.5 -42.5 t102.5 -9.5v-100h-510v102q12 -2 36 -2q37 0 37 13q0 6 -6 14l-145 199l-166 -199q-10 -14 -10 -18q0 -8 75 -9v-100h-413z" />
<glyph unicode="y" horiz-adv-x="1089" d="M12 750v100h484v-100q-84 -2 -84 -23q0 -2 -1 -10t-2 -15.5t1 -13.5l184 -389l160 352q2 2 2 21q0 10 -2 28v21q0 29 -60 29h-16v100h391v-100q-106 -10 -131 -66l-422 -889q-33 -68 -52.5 -101.5t-61.5 -95t-91 -91t-104 -29.5q-63 0 -109.5 26.5t-46.5 75.5 q0 33 24.5 69t67.5 36q12 0 33 -18.5t33 -18.5h8q12 2 24.5 7t25 16.5t22.5 22.5t22.5 33.5t22.5 40t26.5 50t27.5 56.5t31.5 68t35.5 74l-324 666q-33 66 -119 68z" />
<glyph unicode="z" horiz-adv-x="968" d="M59 0v90l504 664h-223q-37 0 -59.5 -24.5t-43 -78t-32.5 -73.5h-127l39 276h762v-86l-492 -664h209q33 0 58.5 16.5t48 54.5t32.5 60.5t31 75.5h133l-20 -311h-820z" />
<glyph unicode="{" horiz-adv-x="692" d="M-6 602v70q111 6 149.5 53t38.5 131q0 29 -5 94.5t-5 98.5q8 111 31.5 186.5t56.5 119.5t89.5 67.5t111.5 30.5t143 7q33 0 76 4v-88q-152 -4 -202 -81.5t-50 -217.5q0 -29 2 -92t2 -92q0 -53 -4 -85t-17.5 -70t-43 -62.5t-78.5 -40.5q61 -20 95 -65.5t41 -90.5t7 -114 q0 -31 -3 -100.5t-3 -104.5q0 -70 9 -121t34 -100.5t78 -75t133 -25.5v-86h-70q-246 0 -335 94.5t-89 335.5q0 47 2 72q-2 182 -49 261t-145 87z" />
<glyph unicode="|" horiz-adv-x="458" d="M131 -342v1706h197v-1706h-197z" />
<glyph unicode="}" horiz-adv-x="702" d="M8 -162q133 0 190.5 41t61.5 162q0 23 -3 94.5t-3 114.5q0 322 154 387q-90 31 -120 102.5t-30 182.5q0 20 1 65t1 68q0 100 -5 148t-29.5 94t-76 62.5t-141.5 18.5v88q14 -2 55 -2q49 0 86 1t41 1q70 0 120 -11t101.5 -46t79 -109.5t27.5 -189.5q0 -39 -7 -117t-7 -114 q0 -92 41 -146.5t151 -62.5v-68q-199 -14 -198 -250q0 -51 11 -154.5t11 -146.5q0 -70 -12 -120t-43 -82.5t-67 -52t-101.5 -30t-125.5 -12.5t-163 -2v86z" />
<glyph unicode="~" horiz-adv-x="1155" d="M57 606q176 199 359 199q68 0 186 -33q117 -35 186 -35q94 0 193 92l119 -26q-174 -197 -367 -197q-55 0 -190 35q-117 35 -191 35q-25 0 -43 -4t-39.5 -16.5t-30 -18.5t-35 -28.5t-32.5 -28.5z" />
<glyph unicode="&#xa1;" horiz-adv-x="483" d="M84 -227q0 100 41 322t45 341q39 -10 69.5 -10t69.5 10q4 -125 45 -347t41 -316q0 -35 -6 -78t-21.5 -95.5t-49 -87t-78.5 -34.5q-156 0 -156 295zM96 745.5q0 57.5 41 98.5t100.5 41t100.5 -41t41 -98.5t-41 -96.5t-100.5 -39t-100.5 39t-41 96.5z" />
<glyph unicode="&#xa2;" horiz-adv-x="925" d="M47 670q0 174 101.5 320.5t275.5 158.5v197h151v-197q98 -8 188.5 -54t96.5 -122q0 -41 -38 -72t-95 -31q-57 6 -76.5 31t-13.5 49.5t-6.5 49t-55.5 30.5v-674q133 18 191 162l145 -26q-29 -115 -125 -182.5t-211 -76.5v-213h-151v216q-180 20 -278.5 138t-98.5 296z M342 721q0 -244 82 -334v637q-82 -53 -82 -303z" />
<glyph unicode="&#xa3;" horiz-adv-x="1230" d="M12 111q0 68 72 109.5t154 41.5q68 0 168 -31q23 326 22 353h-215v94h217q2 94 11.5 181t40 189.5t77.5 176t130 124t194 50.5q133 0 219 -62.5t86 -173.5q-2 -76 -11.5 -112.5t-33 -49t-49 -11.5t-79.5 -4t-110 -23l-22 32q59 66 59 156q0 78 -22.5 116t-55.5 38 q-45 0 -83 -51.5t-38 -106.5q-33 -188 -32 -469h233v-94h-248q-14 -238 -112 -391q113 -35 204 -35q236 0 244 211l119 -95q0 -115 -85 -212t-208 -97q-166 0 -383 133q-57 -37 -157.5 -80t-178.5 -43q-127 1 -127 136zM221 119q0 -53 29 -53q18 0 46 21.5t46 43.5l18 21 q-49 25 -86 24q-53 0 -53 -57z" />
<glyph unicode="&#xa4;" horiz-adv-x="1341" d="M41 1176l133 88l188 -183q141 96 308 97q133 0 295 -99l202 187l136 -88l-203 -195q96 -147 96 -289q0 -123 -98 -276l200 -191l-133 -92l-200 187q-156 -96 -295 -97q-152 0 -299 94l-191 -182l-135 90l188 185q-98 164 -98 290q0 123 96 285zM387 700q0 -123 84 -213 t199 -90q113 0 195.5 90.5t82.5 212.5q0 125 -83 215.5t-195 90.5q-115 0 -199 -90.5t-84 -215.5z" />
<glyph unicode="&#xa5;" horiz-adv-x="1296" d="M0 1290v76h578v-78h-111q-31 0 -35 -22q2 -29 27 -70l248 -500l213 432q39 66 38 111q0 49 -98 49h-35v78h459v-76q-41 -4 -73.5 -20.5t-58.5 -46t-40 -52t-35 -63.5l-131 -248h248v-98h-315l-101 -170v-19h416v-102h-416v-254q0 -57 3 -80.5t23.5 -41t63.5 -17.5h113 v-78h-664v78h113q66 0 81 26.5t15 102.5v10v254h-420v102h416l-112 189h-304v98h236l-139 273q-31 61 -47.5 84.5t-55.5 46t-100 26.5z" />
<glyph unicode="&#xa6;" horiz-adv-x="415" d="M102 338h197v-680h-197v680zM102 684v680h197v-680h-197z" />
<glyph unicode="&#xa7;" horiz-adv-x="909" d="M55 592q0 137 142 291q-109 100 -109 219q0 131 109.5 214t259.5 83q111 0 227.5 -69.5t116.5 -162.5q0 -35 -32 -65.5t-83 -34.5h-2q-45 2 -66.5 24.5t-26.5 51t-12.5 58.5t-38 49.5t-87.5 19.5q-45 0 -82 -32t-37 -85q0 -57 52 -112.5t128 -103.5t151.5 -100.5 t128 -123t52.5 -152.5q0 -137 -117 -291q113 -113 113 -229q0 -143 -118 -242.5t-278 -99.5q-139 0 -259.5 85t-120.5 210q0 37 31.5 62.5t84.5 25.5q66 0 86.5 -24.5t20.5 -67.5v-41q0 -25 5 -41.5t20.5 -33.5t50 -26.5t88.5 -9.5q55 0 96 43t41 109q0 57 -55.5 111.5 t-133 100.5t-156.5 98t-134.5 128t-55.5 164zM299 672q0 -41 18.5 -80t57.5 -76t68.5 -61.5t82 -60.5t68.5 -48q12 68 12 133q0 51 -33.5 104.5t-64.5 81t-100.5 81t-83.5 63.5q-25 -74 -25 -137z" />
<glyph unicode="&#xa8;" horiz-adv-x="921" d="M100 1108q0 59 42 100t99.5 41t99.5 -41t42 -100t-42 -100t-99.5 -41t-99.5 41t-42 100zM496 1108q0 59 41 100t100 41t100 -41t41 -100t-41 -100t-100 -41t-100 41t-41 100z" />
<glyph unicode="&#xa9;" horiz-adv-x="1574" d="M63 684q0 297 201 503t522 206q311 0 516 -206t205 -503t-204.5 -504t-516.5 -207q-313 0 -518 207t-205 504zM203 684q0 -248 172 -426t411.5 -178t412.5 178t173 426t-173 425t-412.5 177t-411.5 -177t-172 -425zM360 670q0 176 124 291.5t319 115.5q111 0 180 -49 q0 2 6 55h117v-272h-121q-41 180 -162 180q-100 0 -148 -90t-48 -215q0 -129 46 -216t150 -87q90 0 162 51t148 158l12 -141q-133 -160 -340 -160q-195 0 -320 105.5t-125 273.5z" />
<glyph unicode="&#xaa;" horiz-adv-x="800" d="M82 616v99h655v-99h-655zM86 930q0 143 336 229v70q0 74 -53 74q-70 0 -70 -23q0 -8 13.5 -32.5t13.5 -41.5q0 -31 -31 -47t-74 -16q-47 0 -82 19.5t-35 54.5q0 72 91.5 115.5t179.5 43.5q254 0 254 -174v-309q2 0 6 43l108 -29q-90 -111 -182 -110q-94 0 -119 84 q-98 -84 -178 -84q-74 0 -126 38t-52 95zM297 948q0 -59 29 -59q37 0 96 74v118q-125 -55 -125 -133z" />
<glyph unicode="&#xab;" horiz-adv-x="921" d="M31 446q0 37 43 60l270 237q70 35 148 35h14q27 0 26 -30q0 -35 -36 -68l-172 -225l174 -228q45 -37 45 -65q0 -47 -97 -47q-16 0 -33.5 6t-27.5 12t-29 19l-24 16zM352 446q0 33 39 58l273 239q51 35 137 35h24q27 0 27 -30q0 -16 -37 -68l-170 -225l170 -228 q39 -45 39 -61q0 -4 -2 -8t-6 -8.5t-8 -7.5t-12.5 -6t-14.5 -5t-17.5 -7t-19.5 -7q-31 0 -123 49z" />
<glyph unicode="&#xac;" horiz-adv-x="1124" d="M37 420v127h971v-547h-314v420h-657z" />
<glyph unicode="&#xad;" horiz-adv-x="745" d="M117 389v143h512v-143h-512z" />
<glyph unicode="&#xae;" horiz-adv-x="1570" d="M61 684q0 281 210 495t513 214q311 0 515 -206t204 -503t-203.5 -504t-515.5 -207q-313 0 -518 207t-205 504zM201 684q0 -248 172 -426t411 -178q272 0 451 221h-236l-206 346h-66v-213q0 -37 12.5 -48t40.5 -11q6 0 21.5 1t25.5 1v-76h-430v76q55 0 73.5 9t18.5 48v500 q0 37 -12 47t-45 10h-41v76h395q90 0 164 -16.5t132.5 -67.5t58.5 -135q0 -129 -142 -191l148 -239q23 -41 86 -41h10v-66q127 162 127 373q0 248 -173 425t-412.5 177t-411.5 -177t-172 -425zM727 719h59q109 0 109 129q0 63 -30.5 98t-78.5 35h-59v-262z" />
<glyph unicode="&#xaf;" horiz-adv-x="921" d="M117 1065v102h702v-102h-702z" />
<glyph unicode="&#xb0;" horiz-adv-x="636" d="M80 1114q6 180 239 191q111 0 170.5 -47.5t59.5 -137.5q0 -78 -70.5 -135t-165.5 -57q-96 0 -164.5 54t-68.5 132zM231 1116q0 -45 27 -75.5t59 -30.5q29 0 52.5 32.5t23.5 75.5q0 41 -25.5 72t-56.5 31q-33 0 -56.5 -31t-23.5 -74z" />
<glyph unicode="&#xb1;" horiz-adv-x="1112" d="M41 96v135h985v-135h-985zM41 655v136h414v385h153v-385h418v-136h-418v-374h-153v374h-414z" />
<glyph unicode="&#xb2;" horiz-adv-x="768" d="M49 545l19 100q72 53 105.5 81t97 87t94 104.5t57.5 110t27 127.5q0 51 -28 90t-67 39q-53 0 -80.5 -22.5t-27.5 -59.5t24.5 -73.5t65.5 -57.5q-29 -68 -121 -67q-68 0 -107.5 45t-39.5 94q0 98 89 158.5t205 60.5q129 0 222.5 -68.5t93.5 -175.5q0 -127 -91 -228.5 t-243 -207.5h148q27 0 49 25.5t37 62.5h131l-72 -225h-588z" />
<glyph unicode="&#xb3;" horiz-adv-x="739" d="M47 702q0 68 24.5 91.5t75.5 23.5q16 0 62.5 -3t75.5 -3q-47 -59 -47 -88q0 -45 30.5 -76t67.5 -31q51 0 76.5 44.5t25.5 111.5q0 145 -65 152q-4 0 -50.5 -14.5t-74.5 -14.5q-59 0 -66 61v2q0 55 150 56q33 0 43 -2q45 20 45 125q0 61 -21.5 105t-62.5 44q-57 0 -57 -41 q0 -49 63 -112q-70 -25 -129 -25q-117 0 -117 94q0 74 82 116t176 42q106 0 196.5 -60.5t90.5 -152.5q0 -117 -100 -172q127 -70 127 -197q0 -115 -104.5 -181.5t-235.5 -66.5q-100 0 -190.5 45t-90.5 127z" />
<glyph unicode="&#xb4;" horiz-adv-x="593" d="M63 997l3 2v7l127 241q94 -23 143 -22q23 0 73 12t76 12q49 0 50 -30q0 -20 -37 -39l-310 -207q-29 -8 -65 -8q-60 -1 -60 32z" />
<glyph unicode="&#xb5;" horiz-adv-x="1130" d="M68 -262q0 18 37.5 249.5t37.5 473.5v389h271v-504q0 -121 35.5 -183.5t91.5 -62.5q88 0 170 131v619h272v-623q0 -106 31 -116q20 2 102 28v-76l-231 -100q-98 0 -133 146q-162 -154 -299 -154q-102 0 -166 100q14 -88 67 -305q0 -57 -34.5 -99t-110.5 -42 q-141 0 -141 129z" />
<glyph unicode="&#xb6;" horiz-adv-x="1146" d="M25 1036q10 78 35.5 136.5t69.5 93t86 56t109.5 31t114.5 11.5t125 2h578l-107 -86q-29 0 -46 -10t-24.5 -34t-8.5 -40t-1 -51v-1137q-2 -6 -2 -20q0 -41 26 -62.5t60 -21.5l70 -90h-358v1458h-86v-1458h-404l117 88q55 0 70.5 22.5t19.5 87.5v682q-16 0 -50 -1t-48 -1 q-78 0 -128 10.5t-102.5 43t-81 105t-34.5 185.5zM285 1012q0 -94 40 -157.5t113 -63.5h31v485q-109 -4 -146.5 -55t-37.5 -209z" />
<glyph unicode="&#xb7;" horiz-adv-x="471" d="M74 497.5q0 61.5 44 104.5t107.5 43t107.5 -43t44 -104.5t-44 -104.5t-107.5 -43t-107.5 43t-44 104.5z" />
<glyph unicode="&#xb8;" horiz-adv-x="563" d="M-10 -399l73 92q84 -27 123 -27q49 0 56 68q-2 37 -34 57.5t-91 36.5l55 172h160l-21 -78q80 -12 129 -58t49 -120q0 -82 -85 -137.5t-183 -55.5q-94 1 -231 50z" />
<glyph unicode="&#xb9;" horiz-adv-x="522" d="M49 545v84q63 0 86 11t23 58v496h-95v84q51 0 112 18.5t117 41t77 26.5v-666q0 -45 23.5 -57t88.5 -12v-84h-432z" />
<glyph unicode="&#xba;" horiz-adv-x="804" d="M72 616v99h659v-99h-659zM90 1092q0 119 87 201.5t224 82.5q141 0 227.5 -83t86.5 -203q0 -127 -84 -212t-228 -85q-141 0 -227 86t-86 213zM303 1090q0 -221 98.5 -221.5t98.5 221.5q0 213 -98.5 213t-98.5 -213z" />
<glyph unicode="&#xbb;" horiz-adv-x="925" d="M70 164q0 29 47 61l164 219l-168 220q-33 33 -33 63q0 47 82 47q16 0 33.5 -5t27.5 -11t28.5 -17.5t24.5 -15.5l302 -272q0 -33 -46 -58l-256 -231q-4 -2 -29.5 -18.5t-43 -23.5t-35.5 -7q-98 0 -98 49zM391 164q0 31 37 61l172 219l-172 220q-31 35 -31 63q0 47 84 47 q39 0 113 -49l299 -272q0 -37 -41 -58l-258 -231q-76 -49 -109 -49q-94 0 -94 49z" />
<glyph unicode="&#xbc;" horiz-adv-x="1507" d="M31 528v86q63 0 87.5 11.5t24.5 58.5v512h-96v86q70 2 186.5 42t133.5 42v-682q0 -47 23.5 -58.5t92.5 -11.5v-86h-452zM221 0l795 1366h168l-797 -1366h-166zM774 190l426 617q2 8 43 22q35 0 59.5 -10t24.5 -26v-506q27 4 33 55l137 6l-55 -158h-115v-55q0 -49 14 -49 h78v-86h-403v86q55 0 75.5 8t20.5 41v55h-338zM1006 287h106v239z" />
<glyph unicode="&#xbd;" horiz-adv-x="1515" d="M31 528v86q63 0 87.5 11.5t24.5 58.5v512h-96v86q70 2 186.5 42t133.5 42v-682q0 -47 23.5 -58.5t92.5 -11.5v-86h-452zM221 0l801 1366h162l-797 -1366h-166zM809 0l16 88q82 61 137.5 108.5t121 119t100.5 149.5t35 158q0 53 -28 92t-69 39t-71.5 -33t-30.5 -84 q0 -72 67 -98q-27 -72 -106 -72q-72 0 -113 46t-41 97q0 100 93.5 162t209.5 62q131 0 227.5 -70t96.5 -180q0 -70 -28.5 -134.5t-86 -123t-105.5 -97.5t-122 -90h184q10 0 17.5 4t12.5 14.5t9 19.5t9.5 25.5t9.5 26.5h131l-72 -229h-604z" />
<glyph unicode="&#xbe;" horiz-adv-x="1613" d="M27 690q0 70 28.5 92.5t87.5 22.5q16 0 55.5 -2t63.5 -2q-29 -66 -29 -88q0 -47 28 -78t65 -31q53 0 81.5 44t28.5 114q0 147 -74 156q-6 0 -55 -15.5t-76 -15.5q-57 0 -63 61v2q0 55 133 56h61q53 18 54 129q0 61 -22.5 106t-67.5 45q-59 0 -60 -43q0 -49 64 -117 q-74 -27 -121 -26q-57 0 -95 29.5t-38 68.5q0 78 84 121t174 43q115 0 211 -61.5t96 -155.5q0 -125 -100 -176q131 -70 131 -201q0 -117 -109.5 -185.5t-247.5 -68.5q-104 0 -196 46t-92 130zM334 0l788 1366h166l-794 -1366h-160zM879 190l430 617q6 14 41 22 q33 0 57.5 -11t24.5 -25v-506q25 4 34 55l138 6l-58 -158h-114v-55q0 -49 14 -49h78v-86h-398v86q49 0 70 8t21 41v55h-338zM1112 287h105v239z" />
<glyph unicode="&#xbf;" horiz-adv-x="739" d="M31 -156q0 119 83 218.5t214 99.5q39 0 63 -19v308q35 -4 82 -5q43 0 74 5v-467h-103q-33 61 -65 61q-35 0 -60.5 -67.5t-25.5 -149.5q0 -96 28.5 -173t96.5 -77q41 0 67.5 20.5t36.5 46t26.5 48t41.5 24.5q53 0 89 -21.5t36 -57.5q0 -78 -99.5 -119t-199.5 -41 q-164 0 -274.5 108t-110.5 258zM330 774q0 57 41 98t100 41t100 -41t41 -98t-41 -96t-100 -39t-100 39t-41 96z" />
<glyph unicode="&#xc0;" d="M31 0v102q92 2 139 26t78 95l512 1174h147l537 -1174q29 -63 70.5 -91t115.5 -30v-102h-663v100q70 0 108.5 21.5t38.5 58.5q0 16 -4 27l-94 246h-479l-97 -236q-16 -37 -16 -53q0 -61 139 -62h37v-102h-569zM487 1704q0 29 56 29q18 0 72.5 -11.5t89.5 -11.5 q76 0 143 25l137 -281q-16 -35 -65 -35q-27 0 -70 15l-332 229q-31 21 -31 41zM592 578h360l-180 421z" />
<glyph unicode="&#xc1;" d="M31 0v102q92 2 139 26t78 95l512 1174h147l537 -1174q29 -63 70.5 -91t115.5 -30v-102h-663v100q70 0 108.5 21.5t38.5 58.5q0 16 -4 27l-94 246h-479l-97 -236q-16 -37 -16 -53q0 -61 139 -62h37v-102h-569zM592 578h360l-180 421zM705 1468l135 267q94 -25 153 -25 q25 0 79 13.5t81 13.5q57 0 57 -33q0 -25 -43 -43l-333 -227q-27 -10 -66 -11q-63 0 -63 45z" />
<glyph unicode="&#xc2;" d="M31 0v102q92 2 139 26t78 95l512 1174h147l537 -1174q29 -63 70.5 -91t115.5 -30v-102h-663v100q70 0 108.5 21.5t38.5 58.5q0 16 -4 27l-94 246h-479l-97 -236q-16 -37 -16 -53q0 -61 139 -62h37v-102h-569zM530 1468q0 14 9 25l290 252l289 -250q16 -16 17 -33 q0 -23 -25 -40t-59 -17q-25 0 -56 12l-166 123l-163 -123q-23 -10 -52 -10q-37 0 -60.5 18t-23.5 43zM592 578h360l-180 421z" />
<glyph unicode="&#xc3;" d="M31 0v102q92 2 139 26t78 95l512 1174h147l537 -1174q29 -63 70.5 -91t115.5 -30v-102h-663v100q70 0 108.5 21.5t38.5 58.5q0 16 -4 27l-94 246h-479l-97 -236q-16 -37 -16 -53q0 -61 139 -62h37v-102h-569zM428 1477q152 203 293 202q49 0 145.5 -27.5t147.5 -27.5 q45 0 116 62l105 -39q-74 -90 -139.5 -140.5t-149.5 -50.5q-49 0 -146.5 26.5t-146.5 26.5q-20 0 -41.5 -12t-30 -20.5t-34.5 -36.5zM592 578h360l-180 421z" />
<glyph unicode="&#xc4;" d="M31 0v102q92 2 139 26t78 95l512 1174h147l537 -1174q29 -63 70.5 -91t115.5 -30v-102h-663v100q70 0 108.5 21.5t38.5 58.5q0 16 -4 27l-94 246h-479l-97 -236q-16 -37 -16 -53q0 -61 139 -62h37v-102h-569zM512 1579q0 51 37 89t90 38t90 -38t37 -89t-37 -89t-90 -38 t-90 38t-37 89zM592 578h360l-180 421zM903 1579q0 51 38 89t89 38t89 -38t38 -89t-38 -89t-89 -38t-89 38t-38 89z" />
<glyph unicode="&#xc5;" d="M31 0v102q92 2 139 26t78 95l512 1174h147l537 -1174q29 -63 70.5 -91t115.5 -30v-102h-663v100q70 0 108.5 21.5t38.5 58.5q0 16 -4 27l-94 246h-479l-97 -236q-16 -37 -16 -53q0 -61 139 -62h37v-102h-569zM592 578h360l-180 421zM614 1604q0 76 64.5 132t152.5 56 q92 0 158 -58.5t66 -136.5q0 -76 -65.5 -129t-158.5 -53q-88 0 -152.5 55.5t-64.5 133.5zM768 1604q0 -27 24.5 -49.5t38.5 -22.5q20 0 46 22.5t26 49.5h-4q0 27 -24.5 49t-43.5 22q-14 0 -38.5 -23t-24.5 -48z" />
<glyph unicode="&#xc6;" horiz-adv-x="1951" d="M0 0v102q90 0 141.5 37t89.5 115l486 967q-4 43 -84 43h-55v102h1171l47 -367h-149q-39 147 -96.5 202.5t-186.5 55.5h-205v-442h111q109 0 112 184h160v-489h-160q-2 92 -23.5 141t-80.5 49h-119v-434q0 -96 50.5 -129t142.5 -33q180 0 274 79t131 268h148l-35 -451 h-1221v100q131 6 169 33t38 133v367h-244l-196 -410q-12 -31 -13 -49q0 -23 13.5 -38t41 -22.5t45 -9.5t54.5 -4v-100h-557zM659 739h197v465z" />
<glyph unicode="&#xc7;" horiz-adv-x="1505" d="M57 662q0 309 208 523t534 214q221 0 426 -127q6 14 13 45t13 49h123l37 -524h-149q-109 449 -455 448q-106 0 -188 -54t-128.5 -143t-69 -189.5t-22.5 -209.5q0 -160 44 -290t148.5 -219t258.5 -89q152 0 284 90t201 244l148 -76q-88 -178 -257 -283.5t-366 -113.5 l-4 -41q170 -45 170 -178q0 -82 -80 -138.5t-176 -56.5q-123 0 -260 72l92 72q66 -33 129 -39q25 2 43.5 26.5t18.5 61.5q0 27 -20.5 48t-42 31.5t-66.5 26.5l47 115q-291 14 -472.5 215t-181.5 490z" />
<glyph unicode="&#xc8;" horiz-adv-x="1320" d="M35 0v102q51 2 71.5 3t52 8.5t43 22t20.5 40t9 64.5v886q0 39 -9 65t-20.5 40t-43 21.5t-52 8.5t-71.5 3v102h1093l46 -365h-152q-27 127 -80 193t-154 66h-247v-482h77q74 0 110 44t42 141h152v-490h-152q-8 53 -12 71.5t-14.5 51.5t-23.5 43t-39 19.5t-63 9.5h-77v-406 q0 -88 41 -122t125 -34q70 0 109.5 3.5t89.5 17.5t87 47t66 86q68 123 71 189h148l-37 -449h-1206zM326 1694q0 31 57 30q16 0 70.5 -11t89.5 -11q74 0 141 24l137 -284q-25 -31 -65 -31q-29 0 -68 14l-334 230q-28 16 -28 39z" />
<glyph unicode="&#xc9;" horiz-adv-x="1320" d="M35 0v102q51 2 71.5 3t52 8.5t43 22t20.5 40t9 64.5v886q0 39 -9 65t-20.5 40t-43 21.5t-52 8.5t-71.5 3v102h1093l46 -365h-152q-27 127 -80 193t-154 66h-247v-482h77q74 0 110 44t42 141h152v-490h-152q-8 53 -12 71.5t-14.5 51.5t-23.5 43t-39 19.5t-63 9.5h-77v-406 q0 -88 41 -122t125 -34q70 0 109.5 3.5t89.5 17.5t87 47t66 86q68 123 71 189h148l-37 -449h-1206zM483 1460q0 8 2 13l133 266q92 -25 150 -25q25 0 78 12.5t80 12.5q57 0 57 -31q0 -25 -41 -43l-332 -227q-25 -10 -69 -11q-58 0 -58 33z" />
<glyph unicode="&#xca;" horiz-adv-x="1325" d="M35 0v102q51 2 71.5 3t52 8.5t43 22t20.5 40t9 66.5v884q0 49 -10 77t-42 41t-56.5 16.5t-87.5 5.5v100h1093l46 -362h-152q-27 125 -80 190.5t-154 65.5h-247v-482h77q74 0 110 44t42 141h152v-490h-152q-8 53 -12 71.5t-14.5 51.5t-23.5 43t-39 19.5t-63 9.5h-77v-406 q0 -88 41 -122t125 -34q70 0 108.5 3.5t89.5 17.5t88 47t66 86q4 6 17.5 31.5t19.5 38t15 34t13 43t6 44.5h148l-37 -451h-1206zM358 1477q0 10 2 14l289 254l287 -250q16 -12 16 -29q0 -23 -28.5 -42t-63.5 -19q-25 0 -45 12l-166 123l-168 -123q-23 -6 -39 -6 q-37 0 -60.5 19.5t-23.5 46.5z" />
<glyph unicode="&#xcb;" horiz-adv-x="1320" d="M35 0v102q51 2 71.5 3t52 8.5t43 22t20.5 40t9 64.5v886q0 39 -9 65t-20.5 40t-43 21.5t-52 8.5t-71.5 3v102h1093l46 -365h-152q-27 127 -80 193t-154 66h-247v-482h77q74 0 110 44t42 141h152v-490h-152q-8 53 -12 71.5t-14.5 51.5t-23.5 43t-39 19.5t-63 9.5h-77v-406 q0 -88 41 -122t125 -34q70 0 109.5 3.5t89.5 17.5t87 47t66 86q68 123 71 189h148l-37 -449h-1206zM332 1579q0 51 37 89t90 38t90 -38t37 -89t-37 -89t-90 -38t-90 38t-37 89zM723 1579q0 51 38 89t89 38t89 -38t38 -89t-38 -89t-89 -38t-89 38t-38 89z" />
<glyph unicode="&#xcc;" horiz-adv-x="757" d="M35 0v102q49 2 69.5 3t51 8.5t41 22t19.5 40t9 64.5v886q0 39 -9 65t-19.5 40t-41 21.5t-51 8.5t-69.5 3v102h694v-102q-129 -4 -156 -21q-37 -23 -36 -117v-886q0 -39 10 -66t19 -40t42 -20.5t50.5 -9.5t70.5 -4v-100h-694zM74 1702q0 31 55 31q18 0 70.5 -11.5 t85.5 -11.5q72 0 137 25l135 -281q-16 -35 -63 -35q-29 0 -68 15l-324 229q-28 23 -28 39z" />
<glyph unicode="&#xcd;" horiz-adv-x="757" d="M35 0v102q49 2 69.5 3t51 8.5t41 22t19.5 40t9 64.5v886q0 39 -9 65t-19.5 40t-41 21.5t-51 8.5t-69.5 3v102h694v-102q-129 -4 -156 -21q-37 -23 -36 -117v-886q0 -39 10 -66t19 -40t42 -20.5t50.5 -9.5t70.5 -4v-100h-694zM223 1462l2 4v4l129 267q92 -25 148 -25 q25 0 78 13.5t79 13.5q57 0 58 -33q0 -25 -43 -43l-326 -227q-20 -10 -63 -11q-62 0 -62 37z" />
<glyph unicode="&#xce;" horiz-adv-x="763" d="M35 0v102q49 2 69.5 3t51 8.5t41 22t19.5 40t9 64.5v886q0 39 -9 65t-19.5 40t-41 21.5t-51 8.5t-69.5 3v102h694v-102q-129 -4 -156 -21q-37 -23 -36 -117v-886q0 -39 10 -66t19 -40t42 -20.5t50.5 -9.5t70.5 -4v-100h-694zM88 1464q0 10 6 27l285 254l280 -250 q14 -12 15 -29q0 -25 -24.5 -44t-57.5 -19q-25 0 -47 14l-166 123l-164 -123q-23 -8 -49 -8q-33 0 -55.5 15t-22.5 40z" />
<glyph unicode="&#xcf;" horiz-adv-x="751" d="M35 0v102q49 2 69.5 3t51 8.5t41 22t19.5 40t9 64.5v886q0 39 -9 65t-19.5 40t-41 21.5t-51 8.5t-69.5 3v102h694v-102q-129 -4 -156 -21q-37 -23 -36 -117v-886q0 -39 10 -66t19 -40t42 -20.5t50.5 -9.5t70.5 -4v-100h-694zM45 1579q0 51 37 89t90 38t90 -38t37 -89 t-37 -89t-90 -38t-90 38t-37 89zM436 1579q0 51 38 89t89 38t89 -38t38 -89t-38 -89t-89 -38t-89 38t-38 89z" />
<glyph unicode="&#xd0;" horiz-adv-x="1529" d="M39 0v102q49 2 69.5 3t51 8.5t41 22t19.5 40t9 64.5v417h-141v117h141v352q0 39 -9 65t-19.5 40t-41 21.5t-51 8.5t-69.5 3v102h573q266 0 387 -39q223 -74 348.5 -251t125.5 -404q0 -303 -198 -487.5t-519 -184.5h-717zM530 307q0 -129 36 -163.5t153 -34.5 q111 0 192.5 46t128.5 126.5t68.5 179t21.5 215.5q0 588 -507 588q-27 0 -93 -4v-486h318v-117h-318v-350z" />
<glyph unicode="&#xd1;" horiz-adv-x="1538" d="M35 0v102q106 2 148 47.5t42 147.5v831q0 39 -9 65t-19.5 40t-41 21.5t-50 9.5t-70.5 4v102h463l651 -950l-2 670q0 53 -7 85.5t-26.5 49t-36 21.5t-50.5 11.5t-56 14.5v98h551v-102q-106 -2 -148.5 -43t-42.5 -135v-1102h-162l-768 1097v-735q0 -68 5.5 -103.5t24 -72.5 t61.5 -53.5t114 -20.5v-100h-571zM389 1477q143 203 279 202q49 0 142 -27.5t144 -27.5q47 0 109 62l108 -39q-72 -90 -136 -140.5t-144 -50.5q-47 0 -141.5 26.5t-143.5 26.5q-45 0 -114 -69z" />
<glyph unicode="&#xd2;" horiz-adv-x="1626" d="M57 682q0 315 220.5 516t558.5 201q340 0 561 -201t221 -516q0 -311 -222 -514t-560 -203q-334 0 -556.5 204t-222.5 513zM401 684q0 -121 22.5 -224.5t70 -192.5t135.5 -141t207 -52q121 0 207.5 52t135 142t70 193.5t21.5 222.5t-21.5 222.5t-70 193.5t-135.5 142 t-207 52q-119 0 -206 -52t-135.5 -142t-71 -193.5t-22.5 -222.5zM561 1702q0 31 55 31q16 0 69.5 -11.5t86.5 -11.5q72 0 137 25l133 -285q-25 -31 -65 -31q-29 0 -68 15l-319 229q-29 21 -29 39z" />
<glyph unicode="&#xd3;" horiz-adv-x="1626" d="M57 682q0 315 220.5 516t558.5 201q340 0 561 -201t221 -516q0 -311 -222 -514t-560 -203q-334 0 -556.5 204t-222.5 513zM401 684q0 -121 22.5 -224.5t70 -192.5t135.5 -141t207 -52q121 0 207.5 52t135 142t70 193.5t21.5 222.5t-21.5 222.5t-70 193.5t-135.5 142 t-207 52q-119 0 -206 -52t-135.5 -142t-71 -193.5t-22.5 -222.5zM678 1460l2 2v6l133 267q92 -25 145 -25q23 0 76 13.5t80 13.5q55 0 55 -31q0 -27 -45 -45l-315 -227q-27 -10 -68 -11q-63 0 -63 37z" />
<glyph unicode="&#xd4;" horiz-adv-x="1626" d="M57 682q0 315 220.5 516t558.5 201q340 0 561 -201t221 -516q0 -311 -222 -514t-560 -203q-334 0 -556.5 204t-222.5 513zM401 684q0 -121 22.5 -224.5t70 -192.5t135.5 -141t207 -52q121 0 207.5 52t135 142t70 193.5t21.5 222.5t-21.5 222.5t-70 193.5t-135.5 142 t-207 52q-119 0 -206 -52t-135.5 -142t-71 -193.5t-22.5 -222.5zM520 1456q0 27 17 39l274 250l279 -250q20 -16 20 -37q0 -23 -20.5 -39t-55.5 -16q-29 0 -63 14l-160 123l-156 -123q-39 -16 -69 -16q-33 0 -49.5 16t-16.5 39z" />
<glyph unicode="&#xd5;" horiz-adv-x="1626" d="M55 684q0 315 214 517t542 202q330 0 545 -202t215 -517q0 -311 -216 -515t-544 -204q-324 0 -540 204t-216 515zM391 686q0 -121 21.5 -224.5t67.5 -192.5t131 -141t200 -52q117 0 202 52t131 142t66.5 192.5t20.5 223.5t-20.5 223.5t-66.5 193.5t-131 143t-202 52 q-115 0 -200 -52t-131 -142t-67.5 -194.5t-21.5 -223.5zM422 1475q143 203 280 202q49 0 141.5 -27.5t143.5 -27.5q43 0 109 61l104 -38q-141 -190 -276 -191q-47 0 -141.5 26.5t-141.5 26.5q-43 0 -100 -69z" />
<glyph unicode="&#xd6;" horiz-adv-x="1626" d="M57 682q0 315 220.5 516t558.5 201q340 0 561 -201t221 -516q0 -311 -222 -514t-560 -203q-334 0 -556.5 204t-222.5 513zM401 684q0 -121 22.5 -224.5t70 -192.5t135.5 -141t207 -52q121 0 207.5 52t135 142t70 193.5t21.5 222.5t-21.5 222.5t-70 193.5t-135.5 142 t-207 52q-119 0 -206 -52t-135.5 -142t-71 -193.5t-22.5 -222.5zM485 1579q0 51 38 89t89.5 38t89 -38t37.5 -89t-37.5 -89t-89 -38t-89.5 38t-38 89zM877 1579q0 51 36.5 89t90 38t90 -38t36.5 -89t-36.5 -89t-90 -38t-90 38t-36.5 89z" />
<glyph unicode="&#xd7;" horiz-adv-x="968" d="M47 408l305 301l-303 299l131 90l303 -297l299 299l138 -92l-310 -301l308 -299l-132 -93l-301 299l-305 -301z" />
<glyph unicode="&#xd8;" horiz-adv-x="1630" d="M57 682q0 311 214 511t542 200q236 0 406 -117l137 168l133 -70l-168 -170q123 -96 187.5 -232t64.5 -290q0 -311 -215 -511t-545 -200q-233 0 -414 121l-133 -166l-137 70l145 178q-217 211 -217 508zM393 684q0 -248 35 -381l672 854q-123 133 -287 133 q-152 0 -250 -92t-134 -222t-36 -292zM528 207q115 -127 285 -127q115 0 200 51t131 140t66.5 191.5t20.5 221.5v78q0 193 -29 289z" />
<glyph unicode="&#xd9;" horiz-adv-x="1445" d="M8 1268v98h688v-98q-8 0 -38.5 -1t-41 -2t-34 -5.5t-32.5 -13.5t-21.5 -24.5t-17.5 -40t-5 -57.5v-639q0 -80 5 -135t21.5 -112.5t46 -90t81 -54t124.5 -21.5q158 0 215.5 102t57.5 293v645q0 92 -42 121t-151 37v96h574v-96q-23 -2 -59 -5t-51 -5.5t-35.5 -9.5t-29 -19 t-14.5 -34.5t-6 -57.5v-27v-643q0 -246 -100.5 -377t-358.5 -131q-166 0 -268 19.5t-178 74t-107.5 151.5t-31.5 255v663q0 51 -10.5 80t-41 42.5t-54.5 16.5t-85 5zM438 1706q0 31 58 31q16 0 69 -11.5t86 -11.5q74 0 137 25l140 -285q-25 -31 -68 -31q-31 0 -69 15 l-324 229q-29 16 -29 39z" />
<glyph unicode="&#xda;" horiz-adv-x="1445" d="M8 1268v98h688v-98q-8 0 -38.5 -1t-41 -2t-34 -5.5t-32.5 -13.5t-21.5 -24.5t-17.5 -40t-5 -57.5v-635q0 -80 5 -135t21.5 -112.5t46 -90t81 -54t124.5 -21.5q158 0 215.5 102.5t57.5 292.5v641q0 92 -43 121t-150 35v98h574v-98q-18 -2 -58.5 -4t-52.5 -4.5t-34.5 -9.5 t-29 -19t-13.5 -34.5t-7 -57.5v-27v-639q0 -246 -100.5 -377t-358.5 -131q-166 0 -268 19.5t-178 74t-107.5 151.5t-31.5 255v659q0 51 -10.5 80t-41 42.5t-54.5 16.5t-85 5zM623 1458q0 2 1 5t1 5l131 267q92 -25 147 -25q23 0 76 13.5t80 13.5q55 0 55 -33q0 -25 -41 -43 l-323 -227q-31 -10 -68 -11q-59 0 -59 35z" />
<glyph unicode="&#xdb;" horiz-adv-x="1460" d="M16 1268v98h689v-98q-10 0 -39 -1t-41.5 -2t-35 -5.5t-32.5 -13.5t-22.5 -23.5t-17.5 -39t-5 -57.5v-639q0 -80 5 -135t21.5 -112.5t46 -90t81 -54t125.5 -21.5q78 0 131 23.5t80.5 55t43 91t17.5 102.5t2 117v24v627q0 90 -42 119t-151 37v96h574v-96l-68 -6 q-45 -4 -58 -7.5t-34.5 -15.5t-28 -35.5t-6.5 -64.5v-27v-643q0 -244 -101 -375t-359 -131q-164 0 -265.5 19.5t-178.5 73t-109.5 151.5t-32.5 254v663q0 41 -9.5 67t-19.5 40t-41 21.5t-49.5 9.5t-69.5 4zM434 1452q0 27 19 43l274 250l277 -250q18 -16 18 -35 q0 -23 -23.5 -39t-56.5 -16q-29 0 -55 12l-160 123l-156 -123q-39 -18 -75 -18q-31 0 -46.5 15t-15.5 38z" />
<glyph unicode="&#xdc;" horiz-adv-x="1445" d="M8 1266v100h688v-100q-10 0 -38.5 -1t-41 -2t-34 -5.5t-31.5 -13.5t-22.5 -23.5t-17.5 -39t-5 -57.5v-635q0 -80 5 -135t21.5 -112.5t46 -90t81 -54t124.5 -21.5q78 0 131.5 23.5t80 55t42 91t17.5 102.5t2 117v24v623q0 90 -42 119t-151 37v98h574v-98q-23 -2 -59 -5 t-50 -5.5t-35.5 -9.5t-30 -19t-14.5 -35t-6 -55v-27v-639q0 -246 -100.5 -377t-358.5 -131q-166 0 -268 19.5t-178 74t-107.5 151.5t-31.5 255v659q0 49 -10.5 78t-41 42t-54.5 16.5t-85 5.5zM426 1579q0 51 37 89t90 38t90 -38t37 -89t-37 -89t-90 -38t-90 38t-37 89z M817 1579q0 51 38 89t89 38t89 -38t38 -89t-38 -89t-89 -38t-89 38t-38 89z" />
<glyph unicode="&#xdd;" horiz-adv-x="1419" d="M-8 1272v100h647v-100h-78h-10q-35 0 -35 -31q0 -23 14 -47l258 -426l248 426q-10 12 -10 41q0 37 -102 37h-72v100h567v-100q-90 -4 -144 -29.5t-93 -89.5l-324 -543v-368q0 -47 10.5 -76t39 -42t53 -16.5t75.5 -5.5v-102h-674v102q55 2 77 4.5t54.5 9.5t44 21.5 t20.5 40t9 64.5v366l-366 563q-35 55 -81 76t-128 25zM520 1458q0 2 1 5t1 5l131 267q96 -25 148 -25q23 0 75 12.5t78 12.5q57 0 58 -31q0 -25 -41 -43l-322 -227q-37 -12 -69 -13q-60 0 -60 37z" />
<glyph unicode="&#xde;" horiz-adv-x="1202" d="M33 0v102q49 2 69.5 3t50 8.5t40 22t18.5 40t8 64.5v886q0 47 -11 75t-41 41t-54.5 17.5t-79.5 6.5v100h684v-102q-139 -6 -168 -23.5t-29 -87.5q16 0 46 1t48 1q113 0 201 -14.5t173 -52t131 -114.5t46 -190q0 -74 -20.5 -131t-50 -95t-79.5 -64.5t-95.5 -41t-113 -21.5 t-113.5 -9t-115 -2h-58v-180q0 -41 9.5 -67t19.5 -39t43 -20.5t51.5 -8.5t73.5 -3v-102h-684zM520 520h105q106 0 161.5 72t55.5 196q0 162 -57.5 217.5t-161.5 55.5q-33 0 -103 -4v-537z" />
<glyph unicode="&#xdf;" horiz-adv-x="1118" d="M35 0v100q72 2 98.5 36t26.5 104v774q0 172 118.5 278.5t303.5 106.5q166 0 284.5 -90t118.5 -238q0 -168 -201 -270q123 -49 193 -151.5t70 -237.5q0 -170 -106.5 -302.5t-287.5 -132.5q-29 4 -46 10.5t-38.5 37t-27.5 81.5q12 49 90 50q70 0 69 -105v-2q55 55 60 297 v87q0 28 -3 73t-8.5 64.5t-14.5 50t-23.5 43t-36 29t-51 22.5t-66.5 11t-86 5l45 115q109 0 154 55t45 176q0 225 -156 226q-131 0 -131 -205v-871v-8q0 -39 3 -59.5t24.5 -39t62.5 -20.5l-2 -100h-481z" />
<glyph unicode="&#xe0;" horiz-adv-x="1038" d="M74 201q0 68 23.5 119t58 78.5t88 50t101.5 34t109.5 27.5t100.5 33v53q0 94 -18.5 141t-81.5 47q-59 0 -90 -30.5t-38.5 -67.5t-30 -67.5t-67.5 -30.5q-51 0 -96 23.5t-45 62.5q0 68 67.5 119t149.5 71.5t154 20.5q362 0 362 -273v-501q61 45 68 102h127 q-72 -236 -248 -236q-154 0 -186 119q-121 -117 -263 -116q-111 0 -178 62.5t-67 158.5zM219 1212q0 33 57 33q16 0 66.5 -10t83.5 -10q78 0 135 22l135 -280q-23 -33 -65 -33q-27 0 -66 14l-319 228q-27 18 -27 36zM338 254q0 -123 78 -123q68 0 139 72v237 q-12 -6 -63.5 -24.5t-75 -31.5t-49 -48t-29.5 -82z" />
<glyph unicode="&#xe1;" horiz-adv-x="1038" d="M74 201q0 68 23.5 119t58 78.5t88 50t101.5 34t109.5 27.5t100.5 33v53q0 94 -18.5 141t-81.5 47q-59 0 -90 -30.5t-38.5 -67.5t-30 -67.5t-67.5 -30.5q-51 0 -96 23.5t-45 62.5q0 68 67.5 119t149.5 71.5t154 20.5q362 0 362 -273v-501q61 45 68 102h127 q-72 -236 -248 -236q-154 0 -186 119q-121 -117 -263 -116q-111 0 -178 62.5t-67 158.5zM336 973q0 2 1 5t1 5l127 264q88 -25 145 -24q23 0 76 13t80 13q53 0 53 -30q0 -25 -45 -45l-313 -226q-31 -10 -68 -10q-57 0 -57 35zM338 254q0 -123 78 -123q68 0 139 72v237 q-12 -6 -63.5 -24.5t-75 -31.5t-49 -48t-29.5 -82z" />
<glyph unicode="&#xe2;" horiz-adv-x="1038" d="M74 201q0 68 23.5 119t58 78.5t88 50t101.5 34t109.5 27.5t100.5 33v53q0 94 -18.5 141t-81.5 47q-59 0 -90 -30.5t-38.5 -67.5t-30 -67.5t-67.5 -30.5q-51 0 -96 23.5t-45 62.5q0 68 67.5 119t149.5 71.5t154 20.5q362 0 362 -273v-501q61 45 68 102h127 q-72 -236 -248 -236q-154 0 -186 119q-121 -117 -263 -116q-111 0 -178 62.5t-67 158.5zM203 979q0 18 12 43l274 252l277 -246q16 -14 16 -39q0 -23 -17 -38t-50 -15t-62 12l-164 123l-153 -125q-45 -10 -70 -10q-63 0 -63 43zM338 254q0 -123 78 -123q68 0 139 72v237 q-12 -6 -63.5 -24.5t-75 -31.5t-49 -48t-29.5 -82z" />
<glyph unicode="&#xe3;" horiz-adv-x="1038" d="M74 201q0 68 23.5 119t58 78.5t88 50t101.5 34t109.5 27.5t100.5 33v53q0 94 -18.5 141t-81.5 47q-59 0 -90 -30.5t-38.5 -67.5t-30 -67.5t-67.5 -30.5q-51 0 -96 23.5t-45 62.5q0 68 67.5 119t149.5 71.5t154 20.5q362 0 362 -273v-501q61 45 68 102h127 q-72 -236 -248 -236q-154 0 -186 119q-121 -117 -263 -116q-111 0 -178 62.5t-67 158.5zM109 1008q133 201 276 200q49 0 141 -27.5t142 -27.5q39 0 110 61l103 -38q-70 -90 -134.5 -139.5t-144.5 -49.5q-45 0 -135 26.5t-135 26.5t-107 -69zM338 254q0 -123 78 -123 q68 0 139 72v237q-12 -6 -63.5 -24.5t-75 -31.5t-49 -48t-29.5 -82z" />
<glyph unicode="&#xe4;" horiz-adv-x="1038" d="M74 201q0 68 23.5 119t58 78.5t88 50t101.5 34t109.5 27.5t100.5 33v53q0 94 -18.5 141t-81.5 47q-59 0 -90 -30.5t-38.5 -67.5t-30 -67.5t-67.5 -30.5q-51 0 -96 23.5t-45 62.5q0 68 67.5 119t149.5 71.5t154 20.5q362 0 362 -273v-501q61 45 68 102h127 q-72 -236 -248 -236q-154 0 -186 119q-121 -117 -263 -116q-111 0 -178 62.5t-67 158.5zM125 1108q0 59 42 100t99.5 41t99.5 -41t42 -100t-42 -100t-99.5 -41t-99.5 41t-42 100zM338 254q0 -123 78 -123q68 0 139 72v237q-12 -6 -63.5 -24.5t-75 -31.5t-49 -48t-29.5 -82z M520 1108q0 59 41 100t100.5 41t100.5 -41t41 -100t-41 -100t-100.5 -41t-100.5 41t-41 100z" />
<glyph unicode="&#xe5;" horiz-adv-x="1040" d="M74 201q0 68 23.5 119t58 78.5t88 50t101.5 34t109.5 27.5t100.5 33v53q0 94 -18.5 141t-81.5 47q-59 0 -90 -30.5t-38.5 -67.5t-30 -67.5t-67.5 -30.5q-51 0 -96 23.5t-45 62.5q0 68 67.5 119t149.5 71.5t154 20.5q362 0 362 -273v-501q61 45 68 102h127 q-72 -236 -248 -236q-154 0 -186 119q-121 -117 -263 -116q-111 0 -178 62.5t-67 158.5zM274 1118q0 76 64.5 132.5t153.5 56.5q92 0 157.5 -58.5t65.5 -136.5q0 -76 -65.5 -129t-157.5 -53q-88 0 -153 55t-65 133zM338 254q0 -123 78 -123q68 0 139 72v237 q-12 -6 -63.5 -24.5t-75 -31.5t-49 -48t-29.5 -82zM428 1118q0 -27 24.5 -49t39.5 -22q20 0 45.5 22.5t25.5 48.5h-4q0 27 -24.5 49.5t-42.5 22.5q-14 0 -39 -23.5t-25 -48.5z" />
<glyph unicode="&#xe6;" horiz-adv-x="1452" d="M74 209q0 166 135 227q145 78 358 107q0 49 -3 81.5t-12 72.5t-32.5 61.5t-60.5 21.5q-61 0 -92 -31.5t-38 -68.5t-32 -68.5t-72 -31.5t-93 20.5t-46 52.5q0 104 121 168t244 64q92 0 153.5 -22.5t118.5 -80.5q109 102 260 103q186 0 289.5 -123t103.5 -313h-557 q10 -354 207 -355q49 0 94 23.5t69.5 49.5t72.5 81l127 -45q-66 -109 -169.5 -167.5t-224.5 -58.5q-213 0 -336 156q-55 -68 -145 -112t-176 -44q-119 0 -191.5 66t-72.5 166zM342 248q0 -63 28.5 -96t71.5 -33q90 0 136 104q-12 61 -13 142q0 55 2 79q-41 -10 -60.5 -16 t-57 -22.5t-56 -35t-35 -51t-16.5 -71.5zM825 545h285q-4 229 -131 229q-131 0 -154 -229z" />
<glyph unicode="&#xe7;" horiz-adv-x="944" d="M74 391q0 203 126 343t335 140q106 0 220.5 -50t114.5 -132q0 -45 -43 -71.5t-108 -26.5q-43 0 -70.5 26.5t-39 59.5t-31 59.5t-46.5 26.5q-90 0 -132 -98.5t-42 -221.5q0 -135 53.5 -248.5t159.5 -113.5q72 0 117 38t86 120l139 -29q-43 -121 -134 -183.5t-208 -66.5 l-10 -53q70 -16 116 -59.5t46 -108.5q0 -88 -71.5 -143.5t-178.5 -55.5q-104 0 -244 72l88 72q78 -41 125 -41q20 0 38 26.5t18 61.5q0 66 -113 102l43 131q-168 37 -261 144.5t-93 279.5z" />
<glyph unicode="&#xe8;" horiz-adv-x="993" d="M74 426q0 190 125 324.5t331 134.5q186 0 292 -127t106 -312h-572q10 -356 213 -356q131 0 244 154l131 -45q-154 -221 -405 -222q-209 0 -337 129.5t-128 319.5zM244 1214q0 31 53 31q18 0 70.5 -10t83.5 -10q78 0 137 22l127 -276q-23 -37 -70 -37q-27 0 -63 14 l-310 228q-28 22 -28 38zM360 553h304v16q0 203 -142 203q-76 0 -116 -63.5t-46 -155.5z" />
<glyph unicode="&#xe9;" horiz-adv-x="993" d="M74 426q0 190 125 324.5t331 134.5q186 0 292 -127t106 -312h-572q10 -356 213 -356q131 0 244 154l131 -45q-154 -221 -405 -222q-209 0 -337 129.5t-128 319.5zM346 973q0 2 1 5t1 5l125 264q92 -25 143 -24q23 0 76 13t80 13q51 0 51 -30q0 -25 -43 -45l-311 -226 q-31 -10 -66 -10q-57 0 -57 35zM360 553h304v16q0 203 -142 203q-76 0 -116 -63.5t-46 -155.5z" />
<glyph unicode="&#xea;" horiz-adv-x="993" d="M74 426q0 190 125 324.5t331 134.5q186 0 292 -127t106 -312h-572q10 -356 213 -356q131 0 244 154l131 -45q-154 -221 -405 -222q-209 0 -337 129.5t-128 319.5zM246 1008q0 10 2 14l272 252l279 -252q4 -12 4 -16q0 -25 -25.5 -44.5t-62.5 -19.5q-23 0 -35 4l-160 125 l-158 -125q-8 -2 -22 -2q-37 0 -65.5 18.5t-28.5 45.5zM360 553h304v16q0 203 -142 203q-76 0 -116 -63.5t-46 -155.5z" />
<glyph unicode="&#xeb;" horiz-adv-x="993" d="M74 426q0 190 125 324.5t331 134.5q186 0 292 -127t106 -312h-572q10 -356 213 -356q131 0 244 154l131 -45q-154 -221 -405 -222q-209 0 -337 129.5t-128 319.5zM174 1108q0 59 42 100t99.5 41t99.5 -41t42 -100t-42 -100t-99.5 -41t-99.5 41t-42 100zM360 553h304v16 q0 203 -142 203q-76 0 -116 -63.5t-46 -155.5zM569 1108q0 59 41 100t100.5 41t100.5 -41t41 -100t-41 -100t-100.5 -41t-100.5 41t-41 100z" />
<glyph unicode="&#xec;" horiz-adv-x="645" d="M47 1212q0 33 55 33q16 0 65.5 -10t80.5 -10q76 0 133 22l131 -280q-25 -33 -68 -33q-29 0 -61 14l-309 228q-27 18 -27 36zM80 0v100q76 2 100.5 35t24.5 105v340q0 70 -26.5 104.5t-98.5 36.5v98q90 10 383 66v-645q0 -72 27.5 -105t107.5 -35v-100h-518z" />
<glyph unicode="&#xed;" horiz-adv-x="645" d="M70 989v6l127 265q86 -25 137 -25q23 0 75 13.5t78 13.5q51 0 52 -31q0 -25 -41 -45l-308 -225q-20 -10 -61 -11q-59 0 -59 39zM80 0v100q76 2 100.5 35t24.5 105v340q0 70 -26.5 104.5t-98.5 36.5v98q90 10 383 66v-645q0 -72 27.5 -105t107.5 -35v-100h-518z" />
<glyph unicode="&#xee;" horiz-adv-x="638" d="M12 983q0 20 19 41l268 250l264 -248q16 -10 17 -31q0 -23 -26 -42t-58 -19q-25 0 -47 14l-150 123l-152 -123q-35 -18 -69 -18q-31 0 -48.5 15t-17.5 38zM74 0v100q76 2 100.5 35t24.5 105v340q0 70 -27 104.5t-98 36.5v98q90 10 383 66v-645q0 -72 27.5 -105t107.5 -35 v-100h-518z" />
<glyph unicode="&#xef;" horiz-adv-x="638" d="M-16 1108q0 59 41 100t100 41t100 -41t41 -100t-41 -100t-100 -41t-100 41t-41 100zM74 0v100q76 2 100.5 35t24.5 105v340q0 70 -27 104.5t-98 36.5v98q90 10 383 66v-645q0 -72 27.5 -105t107.5 -35v-100h-518zM379 1108q0 59 42 100t99.5 41t99.5 -41t42 -100 t-42 -100t-99.5 -41t-99.5 41t-42 100z" />
<glyph unicode="&#xf0;" horiz-adv-x="1110" d="M72 418q0 205 130 336t349 131q68 0 137 -25q-35 170 -145 273l-226 -150l-90 92l189 121q-106 51 -246 80l59 84q195 -10 330 -82l234 149l90 -92l-187 -118q332 -274 332 -725q0 -227 -121 -371t-358 -144q-217 0 -347 118t-130 323zM356 412q0 -338 189 -338 q57 0 97 31.5t60.5 86t28.5 110.5t8 122q0 362 -190 362q-193 1 -193 -374z" />
<glyph unicode="&#xf1;" horiz-adv-x="1153" d="M55 0v100q72 2 97.5 36t25.5 104v340q0 68 -27.5 102.5t-95.5 36.5v96q197 27 336 62q35 -51 41 -105q117 111 268 111q297 0 297 -289v-354q0 -72 23.5 -105t97.5 -35v-100h-518v100q72 2 97.5 36t25.5 104v331q0 172 -123 172q-74 0 -154 -88v-415q0 -70 28 -104 t101 -36v-100h-520zM203 1008q133 201 272 200q51 0 143.5 -27.5t141.5 -27.5q43 0 108 61l107 -38q-147 -188 -277 -189q-47 0 -141 26.5t-143 26.5q-39 0 -101 -69z" />
<glyph unicode="&#xf2;" horiz-adv-x="1095" d="M74 420q0 209 128 337t351 128t346 -124t123 -333q0 -201 -131 -326t-346 -125q-217 0 -344 118t-127 325zM303 1217q0 29 53 28q16 0 67.5 -10t84.5 -10q78 0 137 22l131 -276q-16 -37 -65 -37q-31 0 -66 14l-311 228q-31 21 -31 41zM358 412q0 -141 42 -239.5 t145 -98.5q195 0 194 350q0 72 -6 126t-24.5 113.5t-59.5 91t-102 31.5q-189 1 -189 -374z" />
<glyph unicode="&#xf3;" horiz-adv-x="1095" d="M74 420q0 209 128 337t351 128t346 -124t123 -333q0 -201 -131 -326t-346 -125q-217 0 -344 118t-127 325zM358 412q0 -141 42 -239.5t145 -98.5q195 0 194 350q0 72 -6 126t-24.5 113.5t-59.5 91t-102 31.5q-189 1 -189 -374zM379 973q0 2 1 5t1 5l129 264 q88 -25 143 -24q23 0 76 13t80 13q51 0 51 -30q0 -25 -43 -45l-311 -226q-31 -10 -68 -10q-59 0 -59 35z" />
<glyph unicode="&#xf4;" horiz-adv-x="1095" d="M74 418q0 209 128 336t351 127t346 -124t123 -333q0 -199 -131 -323t-346 -124q-217 0 -344 118t-127 323zM264 991.5q0 22.5 12 34.5l271 248l274 -248q16 -10 17 -33q0 -25 -23.5 -45t-54.5 -20q-29 0 -55 20l-158 123l-158 -123q-37 -12 -59 -12q-33 0 -49.5 16.5 t-16.5 39zM358 410q0 -139 42 -237.5t145 -98.5q195 0 194 346q0 72 -6 126t-24.5 112.5t-59.5 90t-102 31.5q-59 0 -100 -32.5t-58.5 -93t-24 -115.5t-6.5 -129z" />
<glyph unicode="&#xf5;" horiz-adv-x="1095" d="M74 418q0 209 128 337t351 128t346 -124t123 -333q0 -199 -131 -324t-346 -125q-217 0 -344 118t-127 323zM166 1008q141 201 274 200q47 0 140.5 -27.5t140.5 -27.5q41 0 106 61l103 -38q-66 -88 -129.5 -138.5t-143.5 -50.5q-47 0 -138 26.5t-140 26.5q-39 0 -100 -69z M358 410q0 -139 42 -237.5t145 -98.5q195 0 194 348q0 72 -6 126t-24.5 113.5t-59.5 91t-102 31.5q-189 1 -189 -374z" />
<glyph unicode="&#xf6;" horiz-adv-x="1095" d="M74 420q0 209 128 337t351 128t346 -124t123 -333q0 -201 -131 -326t-346 -125q-217 0 -344 118t-127 325zM199 1108q0 59 42 100t99 41t99 -41t42 -100t-42 -100t-99 -41t-99 41t-42 100zM358 412q0 -141 42 -239.5t145 -98.5q195 0 194 350q0 72 -6 126t-24.5 113.5 t-59.5 91t-102 31.5q-189 1 -189 -374zM594 1108q0 59 41 100t100.5 41t100.5 -41t41 -100t-41 -100t-100.5 -41t-100.5 41t-41 100z" />
<glyph unicode="&#xf7;" horiz-adv-x="1064" d="M31 637v137h1001v-137h-1001zM399 315.5q0 57.5 41 98.5t100.5 41t100.5 -41t41 -98.5t-41 -96.5t-100.5 -39t-100.5 39t-41 96.5zM399 1093.5q0 57.5 41 98.5t100.5 41t100.5 -41t41 -98.5t-41 -96.5t-100.5 -39t-100.5 39t-41 96.5z" />
<glyph unicode="&#xf8;" horiz-adv-x="1114" d="M72 18l100 117q-84 109 -84 285q0 207 127 332t350 125q135 0 236 -60l102 117l127 -70l-102 -116q109 -106 108 -320q0 -197 -132 -319.5t-343 -122.5q-150 0 -262 73l-100 -110zM360 332q0 -8 1 -20.5t1 -18.5l320 428q-49 57 -119 57q-55 0 -96 -28.5t-60.5 -67.5 t-30.5 -102.5t-13.5 -106.5t-2.5 -106v-35zM424 164q53 -82 137 -82q193 0 193 340q0 25 8 76t8 75q0 4 -1 14.5t-1 14.5z" />
<glyph unicode="&#xf9;" horiz-adv-x="1126" d="M14 750v100h387v-559q0 -172 125 -172q70 0 160 86v405q0 70 -27.5 104t-99.5 36v100h389v-610q0 -68 29 -103t102 -37v-100q-174 0 -346 -12q-20 39 -33 100q-123 -111 -270 -111q-293 0 -293 287v346q0 70 -25.5 104t-97.5 36zM293 1210q0 25 53 25q18 0 71.5 -9 t86.5 -9q76 0 137 20l117 -250q-14 -33 -60 -33q-31 0 -55 13l-317 207q-35 22 -33 36z" />
<glyph unicode="&#xfa;" horiz-adv-x="1126" d="M14 750v100h387v-559q0 -172 125 -172q70 0 160 86v405q0 70 -27.5 104t-99.5 36v100h389v-610q0 -68 29 -103t102 -37v-100q-174 0 -346 -12q-20 39 -33 100q-123 -111 -270 -111q-293 0 -293 287v346q0 70 -25.5 104t-97.5 36zM350 973q0 2 1 5t1 5l129 264 q92 -25 148 -24q25 0 77 13t78 13q55 0 56 -32q0 -23 -43 -43l-318 -226q-37 -10 -69 -10q-60 0 -60 35z" />
<glyph unicode="&#xfb;" horiz-adv-x="1126" d="M14 750v100h387v-559q0 -172 125 -172q70 0 160 86v405q0 70 -27.5 104t-99.5 36v100h389v-610q0 -68 29 -103t102 -37v-100q-174 0 -346 -12q-20 39 -33 100q-123 -111 -270 -111q-293 0 -293 287v346q0 70 -25.5 104t-97.5 36zM254 993q0 14 12 31l279 250l276 -248 q14 -14 15 -29q0 -23 -29 -42t-62 -19q-25 0 -43 12l-157 123l-162 -123q-18 -6 -41 -6q-35 0 -61.5 14t-26.5 37z" />
<glyph unicode="&#xfc;" horiz-adv-x="1126" d="M14 750v100h387v-559q0 -172 125 -172q70 0 160 86v405q0 70 -27.5 104t-99.5 36v100h389v-610q0 -68 29 -103t102 -37v-100q-174 0 -346 -12q-20 39 -33 100q-123 -111 -270 -111q-293 0 -293 287v346q0 70 -25.5 104t-97.5 36zM168 1108q0 59 41 100t100.5 41 t100.5 -41t41 -100t-41 -100t-100.5 -41t-100.5 41t-41 100zM563 1108q0 59 42 100t99.5 41t99.5 -41t42 -100t-42 -100t-99.5 -41t-99.5 41t-42 100z" />
<glyph unicode="&#xfd;" horiz-adv-x="1056" d="M12 750v100h484v-100q-84 -2 -84 -23q0 -2 -2 -10t-2 -15.5t2 -13.5l186 -381l158 344q2 2 2 21q0 10 -2 28v21q0 29 -60 29h-16v100h391v-100q-106 -10 -131 -66l-422 -889q-33 -68 -52.5 -101.5t-61.5 -95t-91 -91t-104 -29.5q-63 0 -109.5 26.5t-46.5 75.5 q0 33 24.5 69t67.5 36q12 0 33 -18.5t33 -18.5h8q12 2 24.5 7t25 16.5t22.5 22.5t22.5 33.5t22.5 40t26.5 50t27.5 56.5t31.5 68t35.5 74l-324 666q-33 66 -119 68zM430 997v2q2 4 2 7l129 241q94 -23 146 -22q25 0 78 12t79 12q55 0 56 -30q0 -20 -41 -39l-322 -207 q-25 -8 -65 -8q-62 -1 -62 32z" />
<glyph unicode="&#xfe;" horiz-adv-x="1089" d="M-18 -420q72 2 97 36t25 103v1399q0 70 -26.5 106t-95.5 38v98q215 31 331 61l21 -20q14 -14 16 -18l8 -12q6 -9 7.5 -16t1.5 -20v-551q92 96 225 97q195 0 309.5 -131.5t114.5 -317.5q0 -190 -118 -328.5t-316 -138.5q-123 0 -215 72v-318q0 -92 41 -116.5t184 -24.5 v-100h-610v102zM367 178q76 -90 159 -90q88 0 147.5 96.5t59.5 255.5q0 150 -50 233t-126 83q-104 0 -190 -146v-432z" />
<glyph unicode="&#xff;" horiz-adv-x="1056" d="M12 750v100h484v-100q-84 -2 -84 -23q0 -2 -2 -10t-2 -15.5t2 -13.5l192 -399l152 362q2 2 2 21q0 10 -2 28v21q0 29 -60 29h-16v100h391v-100q-106 -10 -131 -66l-422 -889q-33 -68 -52.5 -101.5t-61.5 -95t-91 -91t-104 -29.5q-63 0 -109.5 26.5t-46.5 75.5 q0 33 24.5 69t67.5 36q12 0 33 -18.5t33 -18.5h8q12 2 24.5 7t25 16.5t22.5 22.5t22.5 33.5t22.5 40t26.5 50t27.5 56.5t31.5 68t35.5 74l-324 666q-33 66 -119 68zM199 1108q0 59 42 100t99 41t99 -41t42 -100t-42 -100t-99 -41t-99 41t-42 100zM594 1108q0 59 41 100 t100.5 41t100.5 -41t41 -100t-41 -100t-100.5 -41t-100.5 41t-41 100z" />
<glyph unicode="&#x152;" horiz-adv-x="2004" d="M57 690q0 291 199 491.5t512 200.5q123 -10 190 -14q70 -2 318 -2h530l43 -365h-151q-47 256 -246 256h-240v-446h72q152 0 160 186h151v-491h-145l-25 41q-6 86 -36.5 122t-98.5 36h-78v-433q0 -102 47.5 -135t149.5 -33q184 0 275.5 78t121.5 271h154l-39 -453h-905 q-16 0 -109 -10q-74 -12 -112 -13q-342 0 -540 198t-198 515zM410 645q0 -129 32.5 -247.5t114.5 -209t199 -90.5q53 0 84.5 10.5t45 36t16.5 48t3 65.5v14v977q-61 25 -135 25q-88 0 -155.5 -41t-105.5 -103.5t-61.5 -150.5t-30.5 -167t-7 -167z" />
<glyph unicode="&#x153;" horiz-adv-x="1603" d="M74 416q0 193 126 324.5t339 131.5q190 0 299 -110q119 113 278 112q199 0 305.5 -114.5t112.5 -308.5h-578q4 -350 213 -351q74 0 129.5 38t114.5 114l137 -45q-162 -215 -399 -223q-174 0 -313 102q-131 -109 -299 -109q-211 0 -338 125.5t-127 313.5zM362 426 q0 -346 166 -346q164 0 164 356q0 332 -160 332q-51 0 -86.5 -34t-53 -90t-24 -108.5t-6.5 -109.5zM958 545h293q-4 221 -137 221q-76 0 -113 -64.5t-43 -156.5z" />
<glyph unicode="&#x178;" horiz-adv-x="1464" d="M-8 1272v102h667v-102h-81h-11q-35 0 -35 -31q0 -4 17 -47l266 -418l254 418q-10 14 -10 41q0 37 -103 37h-75v102h583v-102q-94 -4 -150.5 -29.5t-94.5 -89.5l-334 -543v-368q0 -47 11 -76t40 -42t54.5 -16.5t78.5 -5.5v-102h-694v102q70 2 96.5 5.5t60 16.5t44 41 t10.5 77v366l-379 563q-37 55 -84 76t-131 25zM416 1579q0 51 38 89t89 38t89 -38t38 -89t-38 -89t-89 -38t-89 38t-38 89zM807 1579q0 51 37 89t90 38t90 -38t37 -89t-37 -89t-90 -38t-90 38t-37 89z" />
<glyph unicode="&#x2c6;" horiz-adv-x="704" d="M55 1014q0 16 17 37l280 223l279 -221q14 -12 14 -27q0 -20 -23.5 -36.5t-58.5 -16.5q-23 0 -49 10l-162 109l-159 -109q-41 -12 -70 -12q-68 0 -68 43z" />
<glyph unicode="&#x2dc;" horiz-adv-x="878" d="M31 1040q139 170 280 170q49 0 142.5 -23.5t142.5 -23.5q45 0 111 51l106 -32q-145 -158 -281 -158q-47 0 -141 21.5t-143 21.5q-8 0 -16.5 -1t-17.5 -5t-13 -6t-14.5 -10.5t-12.5 -10.5t-14.5 -12t-14.5 -12z" />
<glyph unicode="&#x2000;" horiz-adv-x="894" />
<glyph unicode="&#x2001;" horiz-adv-x="1792" />
<glyph unicode="&#x2002;" horiz-adv-x="894" />
<glyph unicode="&#x2003;" horiz-adv-x="1792" />
<glyph unicode="&#x2004;" horiz-adv-x="595" />
<glyph unicode="&#x2005;" horiz-adv-x="446" />
<glyph unicode="&#x2006;" horiz-adv-x="296" />
<glyph unicode="&#x2007;" horiz-adv-x="296" />
<glyph unicode="&#x2008;" horiz-adv-x="223" />
<glyph unicode="&#x2009;" horiz-adv-x="358" />
<glyph unicode="&#x200a;" horiz-adv-x="98" />
<glyph unicode="&#x2010;" horiz-adv-x="745" d="M117 389v143h512v-143h-512z" />
<glyph unicode="&#x2011;" horiz-adv-x="745" d="M117 389v143h512v-143h-512z" />
<glyph unicode="&#x2012;" horiz-adv-x="745" d="M117 389v143h512v-143h-512z" />
<glyph unicode="&#x2013;" horiz-adv-x="1024" d="M117 389v143h790v-143h-790z" />
<glyph unicode="&#x2014;" horiz-adv-x="2048" d="M117 389v143h1814v-143h-1814z" />
<glyph unicode="&#x2018;" horiz-adv-x="524" d="M78 1051q0 115 94 212t246 138v-70q-84 -61 -114 -104t-30 -92q0 -29 7 -66q8 2 18 2q66 0 109 -37t43 -86t-45.5 -86t-110.5 -37q-96 0 -156.5 70t-60.5 156z" />
<glyph unicode="&#x2019;" horiz-adv-x="524" d="M72 1276q0 51 47 88t110 37q100 0 158.5 -69.5t58.5 -155.5q0 -117 -97 -215.5t-249 -135.5v66q86 61 118 109.5t32 105.5q0 33 -2 49q-8 -2 -25 -2q-61 0 -106 37t-45 86z" />
<glyph unicode="&#x201a;" horiz-adv-x="518" d="M68 96q0 51 45 88t108 37q100 0 160.5 -69.5t60.5 -155.5q0 -117 -99 -215t-249 -135v65q86 63 118 109.5t32 103.5q0 14 -4 51q-8 -2 -21 -2q-63 0 -107 37t-44 86z" />
<glyph unicode="&#x201c;" horiz-adv-x="925" d="M78 1051q0 115 98 212t258 138v-70q-88 -61 -119.5 -105t-31.5 -96q0 -29 6 -61q8 2 22 2q70 0 115 -37t45 -86t-48 -86t-118 -37q-100 0 -163.5 70t-63.5 156zM504 1051q0 115 98 212t258 138v-70q-88 -61 -119.5 -105t-31.5 -96q0 -29 6 -61q8 2 22 2q70 0 115 -37 t45 -86t-48 -86t-118 -37q-100 0 -163.5 70t-63.5 156z" />
<glyph unicode="&#x201d;" horiz-adv-x="925" d="M72 1276q0 51 48 88t118 37q102 0 165.5 -69.5t63.5 -155.5q0 -117 -103.5 -215.5t-263.5 -135.5v66q92 63 125 110.5t33 106.5q0 31 -2 47q-8 -2 -25 -2q-68 0 -113.5 37t-45.5 86zM512 1276q0 51 48 88t118 37q102 0 165.5 -69.5t63.5 -155.5q0 -117 -103.5 -215.5 t-262.5 -135.5v66q92 63 124.5 110.5t32.5 106.5q0 31 -2 47q-8 -2 -24 -2q-68 0 -114 37t-46 86z" />
<glyph unicode="&#x201e;" horiz-adv-x="925" d="M68 96q0 51 48 88t117 37q102 0 166 -69.5t64 -155.5q0 -117 -102.5 -215t-262.5 -135v65q90 63 124 109.5t34 103.5q0 14 -4 51q-8 -2 -25 -2q-66 0 -112.5 37t-46.5 86zM475 96q0 51 48 88t118 37q102 0 165.5 -69.5t63.5 -155.5q0 -117 -102 -215t-262 -135v65 q90 63 124 109.5t34 103.5q0 14 -5 51q-8 -2 -24 -2q-66 0 -113 37t-47 86z" />
<glyph unicode="&#x2022;" horiz-adv-x="735" d="M90 598q0 115 82 197t192.5 82t192.5 -82t82 -197t-82 -197t-192.5 -82t-192.5 82t-82 197z" />
<glyph unicode="&#x2026;" horiz-adv-x="1490" d="M115 98.5q0 51.5 36.5 88t90 36.5t90.5 -36.5t37 -88t-37 -88.5t-90.5 -37t-90 37t-36.5 88.5zM616 98.5q0 51.5 37 88t90.5 36.5t90 -36.5t36.5 -88t-36.5 -88.5t-90 -37t-90.5 37t-37 88.5zM1098 98.5q0 51.5 36.5 88t90 36.5t90.5 -36.5t37 -88t-37 -88.5t-90.5 -37 t-90 37t-36.5 88.5z" />
<glyph unicode="&#x202f;" horiz-adv-x="358" />
<glyph unicode="&#x2039;" horiz-adv-x="593" d="M35 444q0 29 43 50l248 231q82 45 102 49q92 0 92 -45q0 -33 -39 -65l-162 -220l164 -219q37 -29 37 -61v-4q0 -18 -26.5 -31.5t-61.5 -13.5q-14 0 -30.5 5t-25.5 11t-26.5 17.5t-23.5 15.5l-248 231q-43 22 -43 49z" />
<glyph unicode="&#x203a;" horiz-adv-x="591" d="M72 160q0 35 32 65l166 219l-168 220q-31 51 -30 61q0 20 21.5 34.5t58.5 14.5q14 0 31.5 -5t27.5 -11t28.5 -17.5t24.5 -15.5l250 -231q43 -37 43 -50q0 -20 -43 -49l-250 -231q-6 -2 -30.5 -18.5t-41 -23.5t-34.5 -7q-86 0 -86 45z" />
<glyph unicode="&#x205f;" horiz-adv-x="446" />
<glyph unicode="&#x20ac;" horiz-adv-x="1146" d="M16 489l84 123h76l-2 86h-158l84 123h84q37 260 172.5 419t280.5 159q63 0 148 -36t104 -36q39 0 53 64l125 6v-418l-115 4q-39 115 -107.5 216t-154.5 101t-163.5 -112.5t-98.5 -366.5h451l-91 -123h-370v-86h323l-82 -123h-231q16 -178 110.5 -308t151.5 -130 q35 0 71 39t62.5 86t72.5 86t101 39q53 0 103 -51v-4q0 -154 -129 -201q-158 -84 -273 -84q-162 0 -342 152q-127 139 -168 376h-172z" />
<glyph unicode="&#x2122;" horiz-adv-x="1435" d="M33 1237l18 143h537l20 -143h-78q-25 88 -90 88h-51v-344q0 -27 11.5 -33t41.5 -6h23v-53h-297v53h20q20 0 29.5 2t17 10.5t7.5 26.5v344h-49q-33 0 -49.5 -21.5t-28.5 -66.5h-82zM614 889v53q47 0 60.5 14.5t13.5 55.5v282q0 33 -61 33h-13v53h217l146 -313l143 313h219 v-53h-19q-13 0 -17.5 -1t-12.5 -2t-11 -3t-7 -6t-5 -11.5t-1 -15.5v-313q0 -16 4 -23.5t8 -8.5t14 -1h4h43v-53h-299v53h23q35 0 42 7t7 44l-2 160l-121 -264h-69l-134 276v-137q0 -35 3.5 -49t20.5 -25.5t56 -11.5v-53h-252z" />
<glyph unicode="&#xe000;" horiz-adv-x="850" d="M0 850h850v-850h-850v850z" />
<glyph unicode="&#xfb01;" horiz-adv-x="1312" d="M70 768v98h133v13q0 238 124 372.5t382 134.5q102 0 225 -45t123 -116q0 -39 -38 -70t-93 -31q-41 0 -64.5 25t-33 53.5t-47.5 53t-107 24.5q-203 0 -203 -170v-20v-224h576q53 8 79 15v-641q0 -72 28 -105t108 -35v-100h-521v100q76 2 100.5 35t24.5 105v340 q0 96 -29.5 141t-95.5 47h-270v-526q0 -86 36 -113t138 -31v-98h-571v102q76 2 102.5 36t26.5 104v526h-133z" />
<glyph unicode="&#xfb02;" horiz-adv-x="1310" d="M70 768v98h133q0 82 7 146.5t30.5 138.5t65.5 122t118 80.5t180 32.5q61 0 113 -10q45 -12 57 -12q55 0 107.5 7t134.5 25.5t112 24.5v-1181q0 -70 27 -104t107 -36v-100h-521v100q72 2 98.5 37t26.5 103v884q0 61 -20 90q-20 -90 -103 -90q-41 0 -64.5 25t-28.5 53.5 t-22.5 53t-49.5 24.5q-53 0 -80 -60.5t-27 -129.5v-224h180v-98h-180v-526q0 -86 36 -113t138 -31v-98h-571v102q76 2 102.5 36t26.5 104v526h-133z" />
<glyph unicode="&#xfb03;" horiz-adv-x="1933" d="M51 768v98h133q0 104 13.5 178t52.5 150t124 116t214 40q90 0 168 -44t78 -118q0 -39 -38 -70t-94 -31q-41 0 -60 25t-20 53.5t-14.5 53t-46.5 24.5q-53 0 -80.5 -60.5t-27.5 -129.5v-187h399v13q0 238 124 372.5t382 134.5q102 0 225 -45t123 -116q0 -39 -38 -70 t-93 -31q-41 0 -64.5 25t-33 53.5t-47 53t-107.5 24.5q-203 0 -203 -170v-20v-224h576q53 8 80 15v-641q0 -72 27.5 -105t107.5 -35v-100h-520v100q76 2 100.5 35t24.5 105v340q0 96 -30 141t-95 47h-271v-526q0 -86 36 -113t138 -31v-98h-571v102q76 2 102.5 36t26.5 104 v526h-399v-526q0 -86 35.5 -113t138.5 -31v-98h-572v102q76 2 102.5 36t26.5 104v526h-133z" />
<glyph unicode="&#xfb04;" horiz-adv-x="1945" d="M51 768v98h133q0 104 13.5 178t52.5 150t124 116t214 40q90 0 168 -44t78 -118q0 -39 -38 -70t-94 -31q-41 0 -60 25t-20 53.5t-14.5 53t-46.5 24.5q-53 0 -80.5 -60.5t-27.5 -129.5v-187h399q0 82 7 146.5t30.5 138.5t65.5 122t118 80.5t180 32.5q61 0 113 -10 q45 -12 57 -12q55 0 107.5 7t134.5 25.5t113 24.5v-1181q0 -70 26.5 -104t106.5 -36v-100h-520v100q72 2 98.5 37t26.5 103v884q0 61 -21 90q-20 -90 -102 -90q-41 0 -64.5 25t-29 53.5t-22.5 53t-50 24.5q-53 0 -80 -60.5t-27 -129.5v-224h180v-98h-180v-526q0 -86 36 -113 t138 -31v-98h-571v102q76 2 102.5 36t26.5 104v526h-399v-526q0 -86 35.5 -113t138.5 -31v-98h-572v102q76 2 102.5 36t26.5 104v526h-133z" />
</font>
</defs>
</svg>
